<?xml version="1.0" encoding="utf-8"?>
<!-- Generator: Adobe Illustrator 16.0.0, SVG Export Plug-In . SVG Version: 6.00 Build 0)  -->
<!DOCTYPE svg PUBLIC "-//W3C//DTD SVG 1.1//EN" "http://www.w3.org/Graphics/SVG/1.1/DTD/svg11.dtd">
<svg version="1.1" id="Layer_1" xmlns="http://www.w3.org/2000/svg" xmlns:xlink="http://www.w3.org/1999/xlink" x="0px" y="0px"
	 width="200px" height="200px" viewBox="0 0 200 200" enable-background="new 0 0 200 200" xml:space="preserve">
<g>
	<g>
		<g>
			<polygon fill="#202021" points="61.274,121.189 86.392,121.189 34.48,16.526 9.36,16.526 			"/>
		</g>
	</g>
	<path fill="#202021" d="M138.309,16.526h-25.121L61.274,121.189h25.118l40.706-82.056h11.211v0.009
		c16.412,0,29.711,13.306,29.711,29.716c0,16.411-13.303,29.717-29.711,29.717h-13.912l-11.219,22.61h25.127
		c28.902,0,52.334-23.43,52.334-52.33C190.639,39.957,167.211,16.526,138.309,16.526z"/>
</g>
<g>
	<path d="M20.89,138.123c1.123,0.978,1.684,2.374,1.684,4.19s-0.562,3.213-1.684,4.189s-2.688,1.465-4.696,1.465h-3.012v6.463H9.923
		v-17.772h6.271C18.202,136.658,19.767,137.147,20.89,138.123z M16.193,145.147c1.004,0,1.762-0.265,2.273-0.794
		c0.511-0.529,0.767-1.209,0.767-2.04s-0.256-1.516-0.767-2.054c-0.511-0.538-1.269-0.809-2.273-0.809h-3.012v5.696H16.193z"/>
	<path d="M29.146,151.61h7.312v2.82H25.915v-17.772h3.231V151.61z"/>
	<path d="M43.549,136.658h4.053l5.833,17.772h-3.423l-1.232-3.834h-6.6l-1.26,3.834h-3.423L43.549,136.658z M43.002,148.159h4.984
		l-2.465-7.64L43.002,148.159z"/>
	<path d="M62.964,136.303c1.096,0,2.044,0.133,2.848,0.396c0.803,0.266,1.497,0.636,2.082,1.109c1.15,0.931,1.898,2.237,2.245,3.916
		l-3.45,0.63c-0.292-0.932-0.744-1.684-1.355-2.26c-0.612-0.575-1.374-0.862-2.287-0.862c-1.242,0-2.245,0.521-3.012,1.561
		c-0.821,1.132-1.232,2.698-1.232,4.696c0,1.999,0.366,3.561,1.096,4.683c0.73,1.123,1.725,1.685,2.985,1.685
		c1.259,0,2.209-0.306,2.848-0.917c0.639-0.611,0.958-1.401,0.958-2.369h3.478c0,1.99-0.635,3.528-1.904,4.614
		c-1.269,1.087-3.008,1.629-5.216,1.629c-2.355,0-4.226-0.821-5.613-2.465c-1.406-1.679-2.109-3.961-2.109-6.846
		c0-2.92,0.721-5.202,2.163-6.846C58.875,137.087,60.7,136.303,62.964,136.303z"/>
	<path d="M73.917,136.658h11.447v2.793h-8.215v4.683h7.695v2.793h-7.695v4.684h8.215v2.82H73.917V136.658z"/>
	<path d="M93.223,136.658v7.421h7.749v-7.421h3.231v17.772h-3.231v-7.53h-7.749v7.53h-3.231v-17.772H93.223z"/>
	<path d="M116.143,136.303c1.187,0,2.272,0.196,3.259,0.588c0.985,0.394,1.834,0.974,2.546,1.74c1.497,1.606,2.245,3.906,2.245,6.9
		c0,3.012-0.748,5.339-2.245,6.982c-1.424,1.533-3.368,2.3-5.833,2.3c-2.446,0-4.381-0.784-5.805-2.354
		c-1.498-1.625-2.245-3.935-2.245-6.928c0-3.031,0.747-5.35,2.245-6.956C111.716,137.061,113.659,136.303,116.143,136.303z
		 M120.853,145.572c0-2.036-0.425-3.605-1.272-4.71c-0.85-1.105-1.996-1.657-3.438-1.657c-1.443,0-2.593,0.552-3.451,1.657
		c-0.857,1.104-1.285,2.674-1.285,4.71c0,2.035,0.428,3.597,1.285,4.682c0.858,1.087,2.008,1.629,3.451,1.629
		c1.441,0,2.588-0.542,3.438-1.629C120.428,149.169,120.853,147.607,120.853,145.572z"/>
	<path d="M131.258,151.61h7.313v2.82h-10.543v-17.772h3.23V151.61z"/>
	<path d="M147.305,136.658c2.7,0,4.883,0.804,6.545,2.41c1.679,1.606,2.518,3.77,2.518,6.489c0,2.702-0.839,4.857-2.518,6.463
		c-1.662,1.606-3.845,2.41-6.545,2.41h-5.778v-17.772H147.305z M144.785,151.5h2.52c1.679,0,3.039-0.565,4.08-1.697
		c0.985-1.095,1.479-2.51,1.479-4.245c0-1.771-0.493-3.203-1.479-4.299c-1.022-1.113-2.382-1.67-4.08-1.67h-2.52V151.5z"/>
	<path d="M160.313,136.658h11.445v2.793h-8.215v4.683h7.695v2.793h-7.695v4.684h8.215v2.82h-11.445V136.658z"/>
	<path d="M189.584,142.108c0,1.259-0.355,2.336-1.067,3.23c-0.712,0.896-1.734,1.516-3.067,1.862l4.765,7.229h-4.216l-3.917-6.929
		h-2.464v6.929h-3.231v-17.772h6.572c2.1,0,3.732,0.503,4.901,1.507C189.01,139.132,189.584,140.446,189.584,142.108z
		 M182.656,145.339c1.187,0,2.081-0.27,2.684-0.808c0.604-0.538,0.904-1.25,0.904-2.136s-0.274-1.598-0.821-2.136
		c-0.549-0.538-1.369-0.809-2.465-0.809h-3.341v5.888H182.656z"/>
	<path d="M70.508,184.471h7.312v2.819H67.277v-17.771h3.231V184.471z"/>
	<path d="M87.622,169.163c1.187,0,2.273,0.196,3.259,0.588c0.986,0.394,1.834,0.973,2.546,1.739c1.497,1.607,2.246,3.907,2.246,6.9
		c0,3.013-0.749,5.34-2.246,6.983c-1.424,1.533-3.368,2.3-5.832,2.3c-2.447,0-4.381-0.784-5.806-2.354
		c-1.498-1.626-2.246-3.935-2.246-6.929c0-3.03,0.748-5.349,2.246-6.956C83.195,169.921,85.139,169.163,87.622,169.163z
		 M92.332,178.433c0-2.036-0.424-3.606-1.273-4.71c-0.849-1.105-1.995-1.657-3.437-1.657c-1.442,0-2.592,0.552-3.45,1.657
		c-0.858,1.104-1.287,2.674-1.287,4.71c0,2.035,0.428,3.597,1.287,4.682c0.858,1.087,2.008,1.629,3.45,1.629
		c1.442,0,2.588-0.542,3.437-1.629C91.908,182.029,92.332,180.468,92.332,178.433z"/>
	<path d="M110.405,184.471c-0.767,2.136-2.236,3.203-4.408,3.203c-2.229,0-4.063-0.839-5.504-2.52
		c-1.498-1.733-2.246-3.952-2.246-6.654c0-2.848,0.803-5.13,2.411-6.846c1.551-1.661,3.55-2.491,5.996-2.491
		c1.66,0,3.054,0.359,4.176,1.081c1.123,0.722,2.003,1.858,2.643,3.409l-3.313,0.767c-0.969-1.551-2.19-2.328-3.67-2.328
		c-1.35,0-2.473,0.575-3.368,1.727c-0.93,1.168-1.396,2.729-1.396,4.682c0,1.845,0.419,3.341,1.259,4.492
		c0.822,1.132,1.916,1.696,3.287,1.696c1.168,0,2.126-0.373,2.875-1.122c0.767-0.767,1.149-1.816,1.149-3.149v-0.109l-3.998-0.083
		v-2.08h7.093v9.146h-2.629L110.405,184.471z"/>
	<path d="M124.863,169.163c1.187,0,2.273,0.196,3.259,0.588c0.986,0.394,1.835,0.973,2.547,1.739c1.497,1.607,2.246,3.907,2.246,6.9
		c0,3.013-0.749,5.34-2.246,6.983c-1.424,1.533-3.367,2.3-5.832,2.3c-2.447,0-4.381-0.784-5.806-2.354
		c-1.497-1.626-2.246-3.935-2.246-6.929c0-3.03,0.749-5.349,2.246-6.956C120.436,169.921,122.381,169.163,124.863,169.163z
		 M129.573,178.433c0-2.036-0.424-3.606-1.273-4.71c-0.849-1.105-1.994-1.657-3.437-1.657c-1.441,0-2.592,0.552-3.449,1.657
		c-0.859,1.104-1.288,2.674-1.288,4.71c0,2.035,0.429,3.597,1.288,4.682c0.857,1.087,2.008,1.629,3.449,1.629
		c1.442,0,2.588-0.542,3.437-1.629C129.149,182.029,129.573,180.468,129.573,178.433z"/>
</g>
</svg>
