<?xml version="1.0" encoding="utf-8"?>
<!-- Generator: Adobe Illustrator 16.0.0, SVG Export Plug-In . SVG Version: 6.00 Build 0)  -->
<!DOCTYPE svg PUBLIC "-//W3C//DTD SVG 1.1//EN" "http://www.w3.org/Graphics/SVG/1.1/DTD/svg11.dtd">
<svg version="1.1" id="Layer_1" xmlns="http://www.w3.org/2000/svg" xmlns:xlink="http://www.w3.org/1999/xlink" x="0px" y="0px"
	 width="500px" height="100px" viewBox="0 0 500 100" enable-background="new 0 0 500 100" xml:space="preserve">
<g>
	<path fill="#FFFFFF" d="M177,35.477"/>
	<path d="M177,35.477"/>
</g>
<g>
	<g opacity="0.25">
		<path fill="#FFFFFF" d="M112.629,5.53l0.001-0.003l-0.047-0.002c-1.534-0.161-3.09-0.246-4.666-0.246h0h0h-21.8h0l-1.139,2.297
			L56.74,64.505L27.364,5.279H0.728L44.91,94.355h0H68.57h0l32.306-65.132h4.039v0.008h3c11.351,0,20.586,9.235,20.586,20.586
			c0,11.352-9.235,20.587-20.586,20.587H95.014l-11.88,23.951h24.782c24.559,0,44.539-19.979,44.539-44.539
			C152.454,26.85,134.979,7.892,112.629,5.53z"/>
		<path fill="#FFFFFF" d="M493.391,21.466c-1.232-3.729-4.576-6.046-8.728-6.046c-0.238,0-0.483,0.008-0.683,0.021
			c-1.072,0.05-2.113,0.295-3.094,0.717h-12.605v8.79c-1.883-4.991-7.003-9.511-15.422-9.511c-5.855,0-10.961,2.023-14.351,5.669
			c-2.075,2.175-3.563,4.821-4.432,7.674V14.537c0-5.045-4.506-8.966-10.481-9.119l-3.077-0.079v12.497
			c-1.441-0.801-3.34-1.403-5.82-1.496c-0.204-0.008-0.407-0.012-0.61-0.012c-7.304,0-13.548,4.983-16.067,11.992V5.396l-3.173-0.04
			c-6.213,0-10.387,3.666-10.387,9.121v13.809c-0.383-1.04-0.851-2.061-1.422-3.046c-3.512-6.062-9.82-9.681-16.877-9.681
			c-0.001,0-0.002,0-0.002,0c-5.76,0-11.033,2.538-14.851,7.146l0.845,0.981c-1.872,1.117-3.322,2.785-4.142,4.849
			c-0.298-3.385-1.432-6.131-3.404-8.173c-2.622-2.687-5.999-4.107-9.767-4.107c-0.302,0-0.604,0.009-0.913,0.028
			c-1.361,0.087-3.241,0.425-5.087,1.146V5.396l-3.173-0.04c-6.213,0-10.388,3.666-10.388,9.121v10.465
			c-1.885-4.989-7.005-9.506-15.421-9.506c-5.855,0-10.961,2.023-14.351,5.669c-5.248,5.501-6.767,13.994-3.877,21.309l-8.648-6.282
			l-1.779,2.315c-1.241,1.616-2.889,2.368-5.182,2.368c-1.984,0-3.512-0.651-4.541-1.935c-1.13-1.41-1.556-3.521-1.111-5.511
			c0.962-4.314,5.197-4.649,6.472-4.649c2.694,0,5.072,1.24,5.531,2.884l0.961,3.438l3.222-1.538
			c2.888-1.379,4.466-4.685,3.928-8.225c-0.592-3.892-3.88-8.434-11.33-9.511c-0.975-0.142-1.97-0.213-2.959-0.213
			c-3.509,0-6.906,0.885-9.813,2.554c-3.94,2.239-6.797,5.804-8.298,9.935V16.278h-13.8v0.939c-1.484-0.915-3.459-1.616-6.066-1.718
			c-0.203-0.007-0.405-0.011-0.607-0.011c-7.511,0-13.926,5.135-16.486,12.345V5.396l-3.173-0.04
			c-6.213,0-10.388,3.666-10.388,9.121v1.06c-0.323-0.867-0.706-1.705-1.163-2.497c-2.861-4.955-7.924-7.683-14.257-7.683h-9.239
			c-6.011,0-9.6,3.88-9.6,10.379v37.619h13.919V40.051c1.292,0.465,2.889,0.764,4.86,0.764c5.83,0,10.911-3.011,13.942-8.262
			c0.62-1.073,1.129-2.206,1.537-3.372v24.174h13.561V42.021c0.899,2.602,2.277,4.94,4.116,6.853
			c3.213,3.343,7.656,5.26,12.189,5.26c2.376,0,4.702-0.52,6.855-1.505v0.729h13.8V41.637c2.236,6.167,7.951,12.198,18.06,12.198
			c6.729,0,11.975-2.586,15.588-7.686l1-1.41c3.259,5.841,9.272,9.276,16.469,9.276c7.096,0,12.328-2.675,15.996-8.177l0.085-0.127
			v7.645h13.561v-19.97l2.46,0.656v-3.905c0-0.463,0-0.9,1.26-0.9c0.795,0,1.402,0.552,1.668,1.521
			c0.531,1.918,0.431,12.677,0.393,16.727c-0.012,1.187-0.021,2.181-0.021,2.872v3h13.499V41.273
			c0.949,2.666,2.473,5.148,4.54,7.244c3.626,3.626,8.455,5.624,13.598,5.624c6.974,0,13.415-3.71,16.805-9.671
			c0.569-0.993,1.035-2.018,1.418-3.062v11.948h13.56v-10.93c2.675,7.6,9.447,11.647,15.924,11.647c2.276,0,4.505-0.487,6.574-1.413
			v0.636h13.559V40.821c0.218,0.719,0.462,1.432,0.761,2.13c2.966,6.928,9.456,11.064,17.361,11.064
			c7.095,0,12.327-2.675,15.996-8.176l0.086-0.129v7.645h13.799v-15.6c0-1.535,0-3.444,0.109-5.195
			c0.244-2.76,2.257-3.789,3.469-3.789c0.37,0,0.574,0.099,0.622,0.169l1.374,3.781l3.232-2.396
			C493.496,28.392,494.502,24.831,493.391,21.466z M310.156,39.604c2.557-1.501,4.221-3.611,5.125-5.899v8.388L310.156,39.604z
			 M463.155,39.604c2.559-1.502,4.224-3.615,5.127-5.906v8.396L463.155,39.604z"/>
		<path fill="#FFFFFF" d="M249.055,62.398c-2.795,0-5.444,0.713-7.895,2.132c-1.695,0.999-3.16,2.263-4.354,3.755l0.547,0.614
			c-0.924,0.62-1.701,1.424-2.296,2.363c-0.016-1.176-0.332-2.15-0.646-2.819c-1.974-4.2-7.673-6.08-12.445-6.08
			c-5.17,0-9.673,2.096-12.675,5.894c-0.638,0.803-1.177,1.658-1.638,2.544c-0.718-1.357-1.651-2.613-2.8-3.762
			c-3.034-3.079-6.73-4.641-10.992-4.641c-2.795,0-5.444,0.713-7.894,2.132c-1.697,1-3.163,2.264-4.355,3.756l0.546,0.613
			c-1.14,0.766-2.073,1.801-2.693,3.041c-1.184,2.308-1.276,5.329-1.276,6.2c0,1.678,0.239,3.268,0.696,4.77h-5.896V62.887
			l-3.097-0.036c-4.429,0-7.522,2.746-7.522,6.677v23.828h19.021v-5.604c0.382,0.5,0.787,0.99,1.237,1.46
			c2.992,3.123,6.782,4.706,11.267,4.706c4.286,0,7.991-1.532,11.013-4.555c1.169-1.17,2.106-2.456,2.824-3.846
			c0.094,0.182,0.181,0.364,0.283,0.543c2.747,4.848,7.84,7.797,13.636,7.891l0.179,0.001c4.425,0,8.594-1.786,11.437-4.898
			c0.865-0.947,1.563-1.994,2.125-3.11c0.655,1.156,1.455,2.251,2.43,3.269c2.992,3.123,6.783,4.706,11.268,4.706
			c4.285,0,7.99-1.532,11.012-4.555c2.999-2.999,4.52-6.739,4.52-11.117c0-4.401-1.544-8.177-4.573-11.206
			C257.013,63.96,253.318,62.398,249.055,62.398z"/>
	</g>
	<path fill="#212121" d="M182.144,8.357c19.499,0,16.739,29.458-0.06,29.458c-8.46,0-8.58-6.36-6.36-9.479
		c0.84,1.68,4.98,1.92,6.78,1.62c6.479-1.2,7.68-13.799-1.5-13.799h-6.78c0,11.4,0,22.799,0,34.199h-7.919V15.737
		c0-4.38,1.8-7.379,6.6-7.379L182.144,8.357L182.144,8.357z"/>
	<path fill="#212121" d="M208.124,50.355h-7.561c0-11.939,0-23.879,0-35.878c0-3.84,2.94-6.18,7.561-6.12
		C208.124,22.336,208.124,36.376,208.124,50.355z"/>
	<path fill="#212121" d="M237.283,46.936c-9.061,9-24.359,2.88-24.359-12.18c0-9.659,7.32-16.559,15.18-16.259
		c7.681,0.3,8.939,7.14,7.5,9.72c-1.319-1.98-4.2-2.52-6.479-2.52c-11.101,0-11.34,18.3,0,18.3c6.358,0,8.159-6.36,8.159-11.94
		v-9.479v-3.3h7.8v31.079h-7.8L237.283,46.936L237.283,46.936z"/>
	<path fill="#212121" d="M257.444,32.716c-1.14,5.1,1.681,11.099,8.58,11.099c3.24,0,5.761-1.199,7.561-3.54l5.7,4.14
		c-3.061,4.319-7.439,6.42-13.141,6.42c-17.999,0-21.479-22.62-8.279-30.119c3.24-1.86,7.141-2.52,10.859-1.98
		c9.959,1.44,10.561,10.14,6.54,12.06C273.403,24.137,259.543,23.296,257.444,32.716z"/>
	<path fill="#212121" d="M293.022,30.856c2.46,2.1,6.06,1.92,9.06,1.62c7.62-0.66,3.78-7.979-2.64-7.62
		c-4.56,0.24-8.64,4.08-8.76,9.479c-0.12,4.5,2.521,9,6.78,9.72c3.06,0.54,6.479-0.42,8.938-2.94l6.3,3.06
		c-3.239,4.859-7.739,6.841-13.5,6.841c-16.078,0-20.278-18.66-11.52-27.84c3.18-3.42,7.74-4.74,12.18-4.74
		c14.819,0,18.06,16.8,5.4,19.919C296.623,40.516,290.623,36.796,293.022,30.856z"/>
	<path fill="#212121" d="M325.842,23.537c1.26-2.76,5.46-4.08,8.278-4.26c2.94-0.18,5.94,0.72,8.341,3.18
		c1.739,1.8,2.64,4.44,2.64,7.92v19.979h-7.499c0-3.899,0.3-17.579-0.48-20.399c-0.659-2.399-2.52-3.72-4.56-3.72
		c-2.7,0-4.26,1.56-4.26,3.9c-0.9-0.24-2.04-1.38-2.46-2.46v22.679h-7.561V14.477c0-3.84,2.94-6.18,7.561-6.12V23.537z"/>
	<path fill="#212121" d="M380.441,42.976c-5.22,9.18-18.06,11.04-25.679,3.42c-4.32-4.38-5.82-10.56-4.142-16.259
		c2.16-7.02,13.801-6.479,14.521,0.3c-2.46-1.74-7.319-0.18-7.38,4.5c0.061,12,16.979,11.879,16.979-0.12
		c0-6.18-4.738-9.899-10.318-8.759c-2.341-2.82-7.319-3.54-10.801-1.44c3.181-3.84,7.561-6.06,12.54-6.06
		C378.761,18.557,386.74,31.996,380.441,42.976z"/>
	<path fill="#212121" d="M395.021,50.355h-7.56c0-11.939,0-23.879,0-35.878c0-3.84,2.938-6.18,7.56-6.12
		C395.021,22.336,395.021,36.376,395.021,50.355z"/>
	<path fill="#212121" d="M423.521,46.996c-8.82,8.759-23.7,2.76-23.7-11.82c0-9.42,7.14-16.14,14.76-15.839
		c7.979,0.3,8.699,6.899,7.318,9.419c-1.318-1.92-4.139-2.46-6.299-2.46c-10.859,0-11.039,17.819-0.062,17.819
		c6.181,0,7.98-6.179,7.98-11.639V8.417c4.68,0.12,7.559,2.94,7.559,6.12v35.759h-7.559v-3.3H423.521z"/>
	<path fill="#212121" d="M446.021,30.856c2.459,2.1,6.059,1.92,9.059,1.62c7.621-0.66,3.781-7.979-2.639-7.62
		c-4.561,0.24-8.641,4.08-8.76,9.479c-0.121,4.5,2.52,9,6.778,9.72c3.062,0.54,6.48-0.42,8.939-2.94l6.301,3.06
		c-3.24,4.859-7.74,6.841-13.5,6.841c-16.08,0-20.278-18.66-11.52-27.84c3.18-3.42,7.74-4.74,12.18-4.74
		c14.818,0,18.059,16.8,5.398,19.919C449.62,40.516,443.62,36.796,446.021,30.856z"/>
	<path fill="#212121" d="M478,19.157v3.96c1.319-2.76,3.54-4.56,6.12-4.68c6.658-0.42,8.459,6.9,4.979,9.48
		c-1.439-3.96-9.299-2.4-9.898,4.38c-0.121,1.92-0.121,3.9-0.121,5.459v12.6h-7.799V19.157H478z"/>
	<path fill="#212121" d="M178.391,85.91v4.445H165.37c0-6.932,0-13.896,0-20.828c0-2.311,1.819-3.709,4.619-3.676
		c0,6.688,0,13.373,0,20.059H178.391z"/>
	<path fill="#212121" d="M202.716,69.145c2.485,2.484,3.71,5.529,3.71,9.101c0,3.534-1.19,6.546-3.64,8.996
		c-2.45,2.45-5.392,3.676-8.892,3.676c-3.64,0-6.686-1.261-9.101-3.781c-2.415-2.52-3.605-5.53-3.605-8.995
		c0-1.365,0.245-3.466,0.945-4.83c2.275-4.552,10.676-3.642,9.206,2.029c-1.785-2.135-5.636-1.154-5.46,3.432
		c0.104,2.449,1.05,4.375,2.87,5.846c1.47,1.225,3.186,1.854,5.146,1.854c2.17,0,4.025-0.805,5.565-2.38
		c1.541-1.61,2.311-3.534,2.311-5.881c0-2.31-0.77-4.271-2.311-5.881c-1.575-1.574-3.431-2.38-5.67-2.38
		c-1.016,0-1.925,0.14-2.8,0.455c-1.681-1.54-4.796-1.646-7.036-0.245c0.979-1.226,2.17-2.24,3.535-3.045
		c1.995-1.155,4.096-1.716,6.37-1.716C197.291,65.396,200.266,66.658,202.716,69.145z"/>
	<path fill="#212121" d="M215.979,72.294c-5.146,5.075-1.68,14.177,6.301,14.177c3.15,0,5.53-1.33,6.406-4.166h-6.476
		c-2.45,0-3.71-2.205-3.535-4.341h15.191c0.77,8.472-5.881,13.058-12.182,12.986c-4.305-0.069-8.681-2.171-11.061-6.37
		c-2.766-4.865-2.101-10.536,1.015-14.457c2.24-2.835,5.812-4.76,10.326-4.76c6.686,0,12.951,4.13,8.716,9.24
		C229.316,70.264,220.565,67.777,215.979,72.294z"/>
	<path fill="#212121" d="M257.91,69.145c2.484,2.484,3.71,5.529,3.71,9.101c0,3.534-1.19,6.546-3.641,8.996
		s-5.391,3.676-8.891,3.676c-3.641,0-6.687-1.261-9.102-3.781c-2.415-2.52-3.604-5.53-3.604-8.995c0-1.365,0.245-3.466,0.945-4.83
		c2.274-4.552,10.676-3.642,9.206,2.029c-1.785-2.135-5.637-1.154-5.461,3.432c0.105,2.449,1.051,4.375,2.87,5.846
		c1.471,1.225,3.187,1.854,5.146,1.854c2.17,0,4.024-0.805,5.564-2.38c1.541-1.61,2.312-3.534,2.312-5.881
		c0-2.31-0.771-4.271-2.312-5.881c-1.574-1.574-3.43-2.38-5.67-2.38c-1.015,0-1.925,0.14-2.8,0.455
		c-1.68-1.54-4.795-1.646-7.036-0.245c0.98-1.226,2.17-2.24,3.535-3.045c1.996-1.155,4.096-1.716,6.371-1.716
		C252.485,65.396,255.46,66.658,257.91,69.145z"/>
</g>
<path fill="#3D3D3D" d="M107.916,8.279H87.977L56.74,71.256L25.503,8.279H5.565l41.206,83.077h19.938l32.307-65.132h8.899v0.008
	c13.026,0,23.586,10.561,23.586,23.586c0,13.027-10.561,23.587-23.586,23.587h-11.04l-8.904,17.951h19.945
	c22.94,0,41.539-18.598,41.539-41.539C149.454,26.876,130.857,8.279,107.916,8.279z"/>
</svg>
