<?xml version="1.0" encoding="utf-8"?>
<!-- Generator: Adobe Illustrator 16.0.0, SVG Export Plug-In . SVG Version: 6.00 Build 0)  -->
<!DOCTYPE svg PUBLIC "-//W3C//DTD SVG 1.1//EN" "http://www.w3.org/Graphics/SVG/1.1/DTD/svg11.dtd">
<svg version="1.1" id="Layer_1" xmlns="http://www.w3.org/2000/svg" xmlns:xlink="http://www.w3.org/1999/xlink" x="0px" y="0px"
	 width="100px" height="100px" viewBox="0 0 100 100" enable-background="new 0 0 100 100" xml:space="preserve">
<g>
	<g enable-background="new    ">
		<path fill="#FFFFFF" d="M9.557,77.167v-7.92c0-1.527,0.889-2.476,2.319-2.476h1.847c1.472,0,2.346,0.655,2.819,1.204
			c0.58,0.673,0.899,1.586,0.899,2.57c0,2.022-1.396,4.115-3.731,4.115c-0.207,0-0.397-0.015-0.571-0.041v2.547H9.557z
			 M13.221,71.092c0.067,0.011,0.156,0.02,0.259,0.02c0.056,0,0.107-0.001,0.146-0.008c0.071-0.014,0.214-0.261,0.19-0.522
			c-0.017-0.185-0.068-0.25-0.321-0.25H13.14v0.599L13.221,71.092z"/>
		<path fill="#202021" d="M13.723,67.771c3.897,0,3.346,5.89-0.012,5.89c-1.691,0-1.715-1.271-1.271-1.896
			c0.168,0.336,0.996,0.385,1.355,0.323c1.295-0.239,1.535-2.758-0.3-2.758H12.14c0,2.278,0,4.558,0,6.836h-1.583v-6.92
			c0-0.876,0.36-1.476,1.319-1.476H13.723L13.723,67.771z"/>
		<path fill="#FFFFFF" d="M16.517,77.168v-8.136c0-1.331,1.049-2.261,2.552-2.261h1l0.031,1v5.873h2.878v3.523H16.517z"/>
		<path fill="#202021" d="M21.978,74.645v1.523h-4.461c0-2.375,0-4.762,0-7.136c0-0.792,0.624-1.271,1.583-1.261
			c0,2.291,0,4.582,0,6.873H21.978L21.978,74.645z"/>
		<path fill="#FFFFFF" d="M28.762,77.168l-0.649-1.721c-0.137,0-0.251,0.003-0.347,0.007l0.374,1.205l-1.782-0.515
			c-0.174-0.051-0.336-0.114-0.487-0.19c-0.071,0.185-0.468,1.213-0.468,1.213h-3.801l3.346-8.642
			c0.56-1.447,1.644-1.751,2.455-1.751c0.205,0,0.425,0.02,0.664,0.061l0.559,0.097l3.941,10.236H28.762z"/>
		<path fill="#202021" d="M27.894,67.82l3.214,8.348h-1.655l-0.647-1.715c-0.947,0-2.435-0.12-2.171,0.73
			c-1.163-0.336-1.115-1.392-0.54-1.883c0.54-0.468,1.415-0.384,2.123-0.384l-1.127-2.879c-1.008,2.591-1.5,3.862-2.375,6.129H23.06
			l2.819-7.28C26.203,68.049,26.79,67.629,27.894,67.82z"/>
		<path fill="#FFFFFF" d="M35.213,77.324c-1.933,0-3.571-0.902-4.493-2.477c-0.981-1.674-1.015-3.913-0.085-5.572
			c0.958-1.708,2.558-2.591,4.756-2.623c0,0,0.001,0,0.002,0c1.479,0,3.261,0.577,3.85,1.843c0.232,0.5,0.463,1.527-0.602,2.788
			l-0.852,1.01l2.271,2.455l-0.665,0.68C38.077,76.774,36.866,77.324,35.213,77.324z M35.251,70.166
			c-0.164,0-0.319,0.016-0.463,0.046c-0.905,0.191-1.309,1.015-1.309,1.746c0,1.282,0.883,1.856,1.757,1.856
			c0.271,0,0.539-0.059,0.774-0.17c0.258-0.117,0.563-0.359,0.919-0.728l0.521-0.537l-0.513-1.396
			C36.766,70.518,36.041,70.166,35.251,70.166z"/>
		<path fill="#202021" d="M34.578,69.234c-1.307,0.276-2.099,1.451-2.099,2.724c0,2.411,2.303,3.37,3.958,2.591
			c0.372-0.168,0.768-0.479,1.211-0.936l1.031,1.115c-1.079,1.104-2.015,1.596-3.466,1.596c-3.862,0-5.097-4.078-3.706-6.561
			c0.888-1.584,2.315-2.088,3.898-2.111c1.667-0.023,4.162,0.982,2.471,2.986C37.444,69.464,35.801,68.973,34.578,69.234z"/>
		<path fill="#FFFFFF" d="M38.764,77.167v-7.944c0-1.42,1-2.451,2.379-2.451h4.454v3.432h0.05l-0.051,1.049
			c-0.057,1.171-0.617,2.021-1.488,2.344h1.489v3.571H38.764z"/>
		<path fill="#202021" d="M44.597,69.344h-3.238v1.859h3.238c-0.036,0.742-0.348,1.535-1.319,1.535h-1.919v1.857h3.238v1.571h-4.833
			v-6.944c0-0.923,0.588-1.451,1.379-1.451h3.454V69.344z"/>
		<path fill="#FFFFFF" d="M49.226,77.168v-3.43H48.63c-0.071,0-0.142-0.003-0.211-0.008v3.438H44.8v-8.111
			c0-1.345,1.061-2.283,2.581-2.283h1l0.039,1v2.43h0.807v-3.432h3.62v10.396H49.226z"/>
		<path fill="#202021" d="M47.419,71.203h2.807v-3.432h1.62v8.396h-1.62v-3.43H48.63c-0.552,0-1.104-0.229-1.211-0.924v4.354H45.8
			v-7.111c0-0.899,0.792-1.296,1.619-1.283V71.203z"/>
		<path fill="#FFFFFF" d="M57.161,77.359c-1.526,0-2.818-0.539-3.84-1.603c-1.004-1.047-1.513-2.316-1.513-3.774
			c0-0.297,0.031-1.325,0.432-2.11c0.212-0.424,0.531-0.777,0.922-1.037l-0.188-0.212c0.407-0.509,0.907-0.939,1.485-1.28
			c0.835-0.483,1.738-0.727,2.689-0.727c1.451,0,2.712,0.532,3.747,1.582c1.033,1.032,1.56,2.318,1.56,3.819
			c0,1.492-0.519,2.767-1.541,3.789C59.885,76.837,58.622,77.359,57.161,77.359z M55.519,71.663
			c-0.019,0.001-0.119,0.138-0.105,0.497c0.024,0.549,0.214,0.94,0.613,1.263c0.339,0.282,0.706,0.414,1.135,0.414
			c0.47,0,0.849-0.163,1.192-0.515c0.348-0.363,0.506-0.771,0.506-1.316c0-0.536-0.163-0.957-0.514-1.323
			c-0.302-0.302-0.631-0.463-1.038-0.499c0.061,0.343,0.044,0.711-0.055,1.089l-0.488,1.881L55.519,71.663z"/>
		<path fill="#202021" d="M60.184,68.9c0.853,0.852,1.271,1.895,1.271,3.117c0,1.211-0.408,2.242-1.248,3.082
			c-0.839,0.84-1.848,1.26-3.046,1.26c-1.247,0-2.29-0.433-3.118-1.295c-0.828-0.863-1.234-1.896-1.234-3.082
			c0-0.469,0.084-1.188,0.322-1.655c0.78-1.56,3.658-1.247,3.154,0.694c-0.611-0.73-1.932-0.396-1.871,1.177
			c0.037,0.84,0.359,1.499,0.984,2.003c0.504,0.42,1.092,0.636,1.763,0.636c0.743,0,1.38-0.276,1.907-0.815
			c0.527-0.551,0.791-1.211,0.791-2.016c0-0.791-0.264-1.463-0.791-2.015c-0.541-0.54-1.176-0.815-1.943-0.815
			c-0.348,0-0.66,0.049-0.959,0.156c-0.576-0.527-1.645-0.564-2.411-0.084c0.336-0.42,0.743-0.768,1.212-1.044
			c0.684-0.396,1.402-0.588,2.182-0.588C58.324,67.616,59.344,68.049,60.184,68.9z"/>
		<path fill="#FFFFFF" d="M61.527,77.168v-8.136c0-1.331,1.05-2.261,2.553-2.261h1l0.031,1v5.873h2.877v3.523H61.527z"/>
		<path fill="#202021" d="M66.988,74.645v1.523h-4.461c0-2.375,0-4.762,0-7.136c0-0.792,0.623-1.271,1.584-1.261
			c0,2.291,0,4.582,0,6.873H66.988L66.988,74.645z"/>
		<path fill="#FFFFFF" d="M67.191,77.168V69.2c0-1.498,0.92-2.429,2.401-2.429h1.572c0.949,0,1.673,0.31,2.197,0.579
			c1.713,0.868,2.701,2.894,2.512,5.156c-0.182,2.168-1.398,3.858-3.176,4.412c-0.603,0.181-1.571,0.253-3.354,0.253L67.191,77.168z
			 M70.785,73.607c0.836-0.026,1.037-0.165,1.249-0.561c0.343-0.653,0.346-1.872-0.144-2.354c-0.204-0.198-0.498-0.324-0.762-0.324
			h-0.344V73.607z"/>
		<path fill="#202021" d="M72.904,68.24c2.842,1.439,2.615,6.752-0.504,7.724c-0.84,0.252-3.033,0.204-4.209,0.204V69.2
			c0-0.816,0.348-1.429,1.401-1.429h1.572C71.885,67.771,72.438,68,72.904,68.24z M72.916,73.518
			c0.516-0.982,0.541-2.687-0.324-3.537c-0.371-0.36-0.91-0.611-1.463-0.611h-1.344c0,1.751,0,3.502,0,5.24
			C71.201,74.607,72.27,74.729,72.916,73.518z"/>
		<path fill="#FFFFFF" d="M75.111,77.167v-7.944c0-1.42,1-2.451,2.379-2.451h4.453v3.432h0.049l-0.05,1.047
			c-0.056,1.173-0.615,2.023-1.487,2.346h1.488v3.571H75.111z"/>
		<path fill="#202021" d="M80.943,69.344h-3.238v1.859h3.238c-0.035,0.742-0.348,1.535-1.318,1.535h-1.92v1.857h3.238v1.571h-4.832
			v-6.944c0-0.923,0.588-1.451,1.379-1.451h3.453V69.344z"/>
		<path fill="#FFFFFF" d="M85.873,77.167l-1.13-1.432v1.432h-3.597v-7.92c0-1.527,0.894-2.476,2.332-2.476h1.834
			c1.92,0,3.321,1.145,3.656,2.986c0.244,1.339-0.152,2.989-1.281,4.002l2.688,3.407H85.873z M84.811,71.092
			c0.067,0.011,0.157,0.02,0.264,0.02c0.061,0,0.116-0.002,0.159-0.009c0.065-0.013,0.209-0.26,0.186-0.521
			c-0.018-0.185-0.068-0.25-0.321-0.25h-0.354v0.626L84.811,71.092z"/>
		<path fill="#202021" d="M85.313,67.771c3.527,0,3.418,4.785,0.9,5.733l2.1,2.662h-1.955l-2.328-2.95
			c-0.348-0.443-0.274-1.056,0-1.451c0.168,0.336,0.996,0.385,1.367,0.323c1.297-0.239,1.535-2.758-0.299-2.758h-1.354
			c0,2.278,0,4.558,0,6.836h-1.597v-6.92c0-0.876,0.361-1.476,1.332-1.476H85.313L85.313,67.771z"/>
	</g>
	<g enable-background="new    ">
		<path fill="#FFFFFF" d="M32.674,91.568v-8.137c0-1.331,1.049-2.26,2.552-2.26h1l0.031,1v5.872h2.878v3.524H32.674z"/>
		<path fill="#202021" d="M38.135,89.045v1.523h-4.461c0-2.375,0-4.762,0-7.137c0-0.791,0.624-1.271,1.583-1.26
			c0,2.291,0,4.582,0,6.872L38.135,89.045L38.135,89.045z"/>
		<path fill="#FFFFFF" d="M43.452,91.76c-1.529,0-2.821-0.539-3.84-1.604c-1.004-1.047-1.513-2.317-1.513-3.773
			c0-0.297,0.031-1.327,0.434-2.111c0.212-0.423,0.53-0.775,0.92-1.036l-0.188-0.212c0.406-0.508,0.905-0.938,1.483-1.279
			c0.834-0.483,1.737-0.727,2.691-0.727c1.451,0,2.711,0.532,3.746,1.581c1.033,1.032,1.559,2.319,1.559,3.82
			c0,1.491-0.518,2.766-1.54,3.789C46.177,91.237,44.914,91.76,43.452,91.76z M41.811,86.064c-0.018,0.001-0.119,0.138-0.105,0.497
			c0.023,0.548,0.212,0.939,0.612,1.263c0.338,0.281,0.706,0.414,1.134,0.414c0.469,0,0.848-0.164,1.192-0.515
			c0.343-0.359,0.506-0.78,0.506-1.316c0-0.537-0.163-0.957-0.514-1.322c-0.302-0.303-0.63-0.464-1.037-0.5
			c0.061,0.343,0.043,0.711-0.055,1.089l-0.488,1.881L41.811,86.064z"/>
		<path fill="#202021" d="M46.474,83.301c0.852,0.852,1.271,1.895,1.271,3.118c0,1.211-0.408,2.242-1.247,3.082
			s-1.847,1.259-3.046,1.259c-1.247,0-2.291-0.432-3.118-1.295s-1.235-1.895-1.235-3.082c0-0.468,0.084-1.188,0.324-1.654
			c0.78-1.561,3.658-1.248,3.154,0.694c-0.612-0.731-1.931-0.396-1.871,1.177c0.036,0.84,0.36,1.498,0.983,2.002
			c0.504,0.42,1.092,0.637,1.763,0.637c0.744,0,1.379-0.276,1.907-0.815c0.527-0.552,0.792-1.212,0.792-2.016
			c0-0.791-0.264-1.464-0.792-2.015c-0.54-0.541-1.176-0.815-1.943-0.815c-0.348,0-0.66,0.048-0.959,0.155
			c-0.576-0.527-1.643-0.563-2.411-0.084c0.336-0.42,0.744-0.768,1.211-1.043c0.684-0.396,1.403-0.588,2.183-0.588
			C44.615,82.018,45.634,82.449,46.474,83.301z"/>
		<path fill="#FFFFFF" d="M52.965,91.771c-1.975-0.031-3.71-1.037-4.647-2.689c-1.111-1.955-0.941-4.339,0.436-6.069
			c1.024-1.295,2.559-2.009,4.321-2.009c1.626,0,3.567,0.64,4.238,2.067c0.208,0.442,0.429,1.272-0.141,2.251h0.892l0.083,0.909
			c0.137,1.507-0.285,2.846-1.221,3.871c-0.969,1.061-2.391,1.669-3.899,1.669H52.965z M55.031,85.322
			c-0.245-0.356-0.963-0.764-1.854-0.764c-0.415,0-1.004,0.093-1.453,0.534c-0.075,0.074-0.141,0.151-0.198,0.229H55.031z"/>
		<path fill="#202021" d="M51.023,84.38c-1.762,1.739-0.576,4.856,2.16,4.856c1.078,0,1.895-0.455,2.193-1.428h-2.219
			c-0.84,0-1.271-0.754-1.213-1.486h5.205c0.265,2.902-2.014,4.474-4.174,4.449c-1.475-0.023-2.974-0.744-3.789-2.183
			c-0.948-1.668-0.72-3.61,0.348-4.954c0.768-0.971,1.989-1.631,3.538-1.631c2.289,0,4.438,1.415,2.986,3.166
			C55.594,83.686,52.596,82.833,51.023,84.38z"/>
		<path fill="#FFFFFF" d="M62.375,91.76c-1.528,0-2.82-0.539-3.839-1.604c-1.005-1.047-1.515-2.316-1.515-3.773
			c0-0.297,0.031-1.327,0.436-2.112c0.211-0.423,0.529-0.775,0.919-1.035l-0.188-0.212c0.408-0.509,0.908-0.939,1.487-1.28
			c0.832-0.482,1.735-0.726,2.688-0.726c1.452,0,2.713,0.532,3.747,1.581c1.032,1.032,1.559,2.319,1.559,3.82
			c0,1.492-0.519,2.768-1.54,3.789C65.1,91.237,63.836,91.76,62.375,91.76z M60.732,86.064c-0.017,0.001-0.118,0.138-0.104,0.497
			c0.023,0.549,0.213,0.939,0.612,1.263c0.339,0.281,0.706,0.414,1.135,0.414c0.47,0,0.85-0.164,1.194-0.516
			c0.347-0.362,0.505-0.771,0.505-1.315c0-0.537-0.163-0.957-0.514-1.323c-0.302-0.302-0.631-0.463-1.038-0.499
			c0.061,0.343,0.044,0.711-0.055,1.089l-0.488,1.882L60.732,86.064z"/>
		<path fill="#202021" d="M65.398,83.301c0.852,0.852,1.271,1.895,1.271,3.118c0,1.211-0.407,2.242-1.247,3.082
			s-1.848,1.259-3.047,1.259c-1.246,0-2.29-0.432-3.117-1.295c-0.828-0.863-1.236-1.895-1.236-3.082
			c0-0.468,0.084-1.188,0.324-1.654c0.779-1.561,3.658-1.248,3.154,0.694c-0.611-0.731-1.932-0.396-1.871,1.177
			c0.036,0.84,0.359,1.498,0.982,2.002c0.505,0.42,1.093,0.637,1.764,0.637c0.744,0,1.38-0.276,1.908-0.815
			c0.527-0.552,0.791-1.212,0.791-2.016c0-0.791-0.264-1.464-0.791-2.015c-0.541-0.541-1.176-0.815-1.943-0.815
			c-0.348,0-0.66,0.048-0.96,0.155c-0.575-0.527-1.644-0.563-2.411-0.084c0.336-0.42,0.744-0.768,1.213-1.043
			c0.684-0.396,1.402-0.588,2.182-0.588C63.539,82.018,64.559,82.449,65.398,83.301z"/>
	</g>
</g>
<g>
	<g>
		<g>
			<polygon fill="#202021" stroke="#FFFFFF" stroke-miterlimit="10" points="30.119,61.102 43.014,61.102 16.363,7.368 3.467,7.368 
							"/>
		</g>
	</g>
	<path fill="#202021" stroke="#FFFFFF" stroke-miterlimit="10" d="M69.667,7.368H56.771L30.119,61.102h12.895l20.897-42.128h5.756
		v0.005c8.426,0,15.255,6.831,15.255,15.256c0,8.425-6.83,15.256-15.255,15.256h-7.142L56.766,61.1h12.9
		c14.838,0,26.866-12.029,26.866-26.866S84.505,7.368,69.667,7.368z"/>
</g>
<g>
	<g>
		<path fill="#010202" d="M-22,42.477"/>
	</g>
</g>
</svg>
