<?xml version="1.0" encoding="utf-8"?>
<!-- Generator: Adobe Illustrator 16.0.0, SVG Export Plug-In . SVG Version: 6.00 Build 0)  -->
<!DOCTYPE svg PUBLIC "-//W3C//DTD SVG 1.1//EN" "http://www.w3.org/Graphics/SVG/1.1/DTD/svg11.dtd">
<svg version="1.1" id="Layer_1" xmlns="http://www.w3.org/2000/svg" xmlns:xlink="http://www.w3.org/1999/xlink" x="0px" y="0px"
	 width="500px" height="100px" viewBox="0 0 500 100" enable-background="new 0 0 500 100" xml:space="preserve">
<path fill="#3D3D3D" d="M107.916,8.279H87.977L56.74,71.256L25.503,8.279H5.565l41.206,83.077h19.938l32.307-65.131h8.899v0.008
	c13.025,0,23.586,10.561,23.586,23.586c0,13.028-10.562,23.586-23.586,23.586h-11.04l-8.904,17.951h19.945
	c22.939,0,41.539-18.598,41.539-41.539C149.454,26.876,130.857,8.279,107.916,8.279z"/>
<g>
	<path fill="#3D3D3D" d="M195.073,23.02c1.845,1.605,2.768,3.9,2.768,6.885c0,2.985-0.922,5.281-2.768,6.885
		c-1.845,1.605-4.417,2.407-7.717,2.407h-4.95v10.62h-5.355V20.612h10.305C190.655,20.612,193.228,21.416,195.073,23.02z
		 M187.355,34.563c1.649,0,2.895-0.435,3.735-1.305c0.84-0.87,1.26-1.987,1.26-3.353c0-1.365-0.42-2.49-1.26-3.375
		c-0.84-0.884-2.085-1.328-3.735-1.328h-4.95v9.36H187.355z"/>
	<path fill="#3D3D3D" d="M208.64,45.183h12.015v4.635H203.33V20.612h5.31V45.183z"/>
	<path fill="#3D3D3D" d="M232.309,20.612h6.66l9.585,29.205h-5.625l-2.025-6.3h-10.845l-2.07,6.3h-5.625L232.309,20.612z
		 M231.409,39.512h8.19l-4.05-12.555L231.409,39.512z"/>
	<path fill="#3D3D3D" d="M264.214,20.027c1.8,0,3.359,0.218,4.68,0.652c1.32,0.436,2.46,1.043,3.42,1.823
		c1.891,1.53,3.12,3.675,3.69,6.435l-5.67,1.035c-0.48-1.53-1.223-2.767-2.228-3.712c-1.006-0.945-2.258-1.417-3.758-1.417
		c-2.04,0-3.689,0.855-4.949,2.565c-1.351,1.861-2.025,4.433-2.025,7.718c0,3.285,0.6,5.85,1.8,7.695
		c1.199,1.845,2.835,2.768,4.905,2.768s3.629-0.502,4.68-1.507c1.05-1.005,1.575-2.302,1.575-3.893h5.715
		c0,3.27-1.043,5.798-3.127,7.583c-2.086,1.785-4.943,2.677-8.573,2.677c-3.87,0-6.945-1.35-9.225-4.05
		c-2.311-2.76-3.465-6.51-3.465-11.25c0-4.8,1.185-8.55,3.555-11.25C257.493,21.317,260.494,20.027,264.214,20.027z"/>
	<path fill="#3D3D3D" d="M282.213,20.612h18.811v4.59h-13.5v7.695h12.645v4.59h-12.645v7.695h13.5v4.635h-18.811V20.612z"/>
	<path fill="#3D3D3D" d="M313.939,20.612v12.195h12.735V20.612h5.31v29.205h-5.31V37.442h-12.735v12.375h-5.311V20.612H313.939z"/>
	<path fill="#3D3D3D" d="M351.603,20.027c1.95,0,3.735,0.323,5.355,0.968s3.015,1.597,4.185,2.857c2.46,2.64,3.69,6.42,3.69,11.34
		c0,4.95-1.23,8.775-3.69,11.475c-2.34,2.52-5.535,3.78-9.585,3.78c-4.021,0-7.2-1.29-9.54-3.87
		c-2.46-2.669-3.689-6.464-3.689-11.385c0-4.979,1.229-8.79,3.689-11.43C344.328,21.272,347.523,20.027,351.603,20.027z
		 M359.343,35.26c0-3.345-0.697-5.924-2.093-7.74c-1.395-1.815-3.277-2.723-5.647-2.723s-4.26,0.908-5.67,2.723
		c-1.41,1.815-2.114,4.395-2.114,7.74c0,3.346,0.704,5.911,2.114,7.695c1.41,1.785,3.3,2.677,5.67,2.677s4.253-0.892,5.647-2.677
		C358.646,41.17,359.343,38.605,359.343,35.26z"/>
	<path fill="#3D3D3D" d="M376.444,45.183h12.015v4.635h-17.325V20.612h5.311V45.183z"/>
	<path fill="#3D3D3D" d="M402.813,20.612c4.439,0,8.025,1.32,10.755,3.96c2.76,2.64,4.141,6.195,4.141,10.665
		c0,4.44-1.381,7.98-4.141,10.62c-2.729,2.64-6.315,3.96-10.755,3.96h-9.495V20.612H402.813z M398.673,45.002h4.14
		c2.76,0,4.995-0.93,6.705-2.79c1.62-1.8,2.43-4.125,2.43-6.975c0-2.91-0.81-5.265-2.43-7.065c-1.681-1.83-3.915-2.745-6.705-2.745
		h-4.14V45.002z"/>
	<path fill="#3D3D3D" d="M424.187,20.612h18.811v4.59h-13.5v7.695h12.645v4.59h-12.645v7.695h13.5v4.635h-18.811V20.612z"/>
	<path fill="#3D3D3D" d="M472.292,29.567c0,2.07-0.585,3.84-1.755,5.31c-1.17,1.47-2.851,2.49-5.04,3.06l7.83,11.88h-6.93
		l-6.436-11.385h-4.05v11.385h-5.311V20.612h10.801c3.449,0,6.135,0.826,8.055,2.475C471.347,24.678,472.292,26.838,472.292,29.567z
		 M460.907,34.877c1.949,0,3.42-0.442,4.41-1.328c0.989-0.884,1.484-2.055,1.484-3.51s-0.45-2.625-1.35-3.51
		c-0.9-0.884-2.25-1.328-4.05-1.328h-5.49v9.675H460.907z"/>
	<path fill="#3D3D3D" d="M179.3,77.402h9.8v2.415h-12.565V57.803h2.765V77.402z"/>
	<path fill="#3D3D3D" d="M200.685,57.418c2.846,0,5.15,0.975,6.912,2.922c1.762,1.949,2.643,4.783,2.643,8.505
		c0,3.723-0.875,6.545-2.625,8.47c-1.75,1.926-4.06,2.888-6.93,2.888c-2.87,0-5.175-0.974-6.913-2.922
		c-1.739-1.948-2.607-4.766-2.607-8.453c0-3.71,0.869-6.538,2.607-8.487C195.51,58.393,197.815,57.418,200.685,57.418z
		 M200.685,59.902c-2.054,0-3.675,0.77-4.865,2.311c-1.19,1.539-1.785,3.757-1.785,6.649c0,2.894,0.595,5.087,1.785,6.58
		s2.812,2.24,4.865,2.24c2.053,0,3.68-0.747,4.882-2.24c1.202-1.493,1.803-3.687,1.803-6.58c0-2.893-0.601-5.11-1.803-6.649
		C204.365,60.672,202.738,59.902,200.685,59.902z"/>
	<path fill="#3D3D3D" d="M229.139,76.037c-0.98,2.777-2.882,4.165-5.705,4.165s-5.139-1.026-6.947-3.08
		c-1.809-2.053-2.712-4.817-2.712-8.295c0-3.477,0.985-6.241,2.958-8.295c1.971-2.053,4.427-3.08,7.367-3.08
		c1.727,0,3.238,0.351,4.533,1.05c1.295,0.7,2.409,1.82,3.342,3.36l-2.66,0.91c-1.517-1.89-3.29-2.835-5.32-2.835
		c-2.03,0-3.751,0.828-5.163,2.484c-1.412,1.657-2.117,3.81-2.117,6.458s0.606,4.777,1.82,6.388c1.213,1.609,2.847,2.415,4.9,2.415
		c1.68,0,3.033-0.561,4.06-1.681c1.026-1.119,1.54-2.776,1.54-4.97v-0.07l-5.53-0.21v-1.819h8.225v10.885h-2.24L229.139,76.037z"/>
	<path fill="#3D3D3D" d="M245.869,57.418c2.846,0,5.15,0.975,6.912,2.922c1.762,1.949,2.643,4.783,2.643,8.505
		c0,3.723-0.875,6.545-2.625,8.47c-1.75,1.926-4.061,2.888-6.93,2.888c-2.87,0-5.175-0.974-6.913-2.922
		c-1.739-1.948-2.607-4.766-2.607-8.453c0-3.71,0.869-6.538,2.607-8.487C240.695,58.393,242.999,57.418,245.869,57.418z
		 M245.869,59.902c-2.054,0-3.675,0.77-4.865,2.311c-1.19,1.539-1.785,3.757-1.785,6.649c0,2.894,0.595,5.087,1.785,6.58
		s2.812,2.24,4.865,2.24c2.053,0,3.68-0.747,4.883-2.24c1.201-1.493,1.803-3.687,1.803-6.58c0-2.893-0.602-5.11-1.803-6.649
		C249.549,60.672,247.922,59.902,245.869,59.902z"/>
</g>
</svg>
