<?xml version="1.0" encoding="utf-8"?>
<!-- Generator: Adobe Illustrator 16.0.0, SVG Export Plug-In . SVG Version: 6.00 Build 0)  -->
<!DOCTYPE svg PUBLIC "-//W3C//DTD SVG 1.1//EN" "http://www.w3.org/Graphics/SVG/1.1/DTD/svg11.dtd">
<svg version="1.1" id="Layer_1" xmlns="http://www.w3.org/2000/svg" xmlns:xlink="http://www.w3.org/1999/xlink" x="0px" y="0px"
	 width="500px" height="100px" viewBox="0 0 500 100" enable-background="new 0 0 500 100" xml:space="preserve">
<g>
	<g>
		<polygon fill="#3D3D3D" points="66.709,91.355 46.771,91.355 87.977,8.279 107.916,8.279 		"/>
	</g>
	<g>
		<polygon fill="#3D3D3D" points="46.771,91.355 66.709,91.355 25.503,8.279 5.565,8.279 		"/>
	</g>
	<g>
		<path fill="#3D3D3D" d="M107.916,8.279H87.977v17.944h19.938v0.008c13.027,0,23.586,10.561,23.586,23.586
			c0,13.027-10.56,23.588-23.586,23.588H96.875l-8.904,17.951h19.945c22.941,0,41.539-18.598,41.539-41.539
			C149.454,26.876,130.857,8.279,107.916,8.279z"/>
	</g>
</g>
<g>
	<path fill="#212121" d="M182.144,8.357c19.499,0,16.739,29.458-0.06,29.458c-8.46,0-8.58-6.36-6.36-9.479
		c0.84,1.68,4.98,1.92,6.78,1.62c6.479-1.2,7.68-13.799-1.5-13.799h-6.78c0,11.4,0,22.799,0,34.199h-7.919V15.737
		c0-4.38,1.8-7.379,6.6-7.379H182.144z"/>
	<path fill="#212121" d="M208.124,50.355h-7.56c0-11.939,0-23.879,0-35.878c0-3.84,2.94-6.18,7.56-6.12
		C208.124,22.336,208.124,36.376,208.124,50.355z"/>
	<path fill="#212121" d="M237.283,46.936c-9.06,9-24.359,2.88-24.359-12.18c0-9.659,7.32-16.559,15.18-16.259
		c7.68,0.3,8.939,7.14,7.5,9.72c-1.32-1.98-4.2-2.52-6.479-2.52c-11.1,0-11.34,18.3,0,18.3c6.359,0,8.159-6.36,8.159-11.94v-9.479
		v-3.3h7.8v31.079h-7.8V46.936z"/>
	<path fill="#212121" d="M257.444,32.716c-1.14,5.1,1.68,11.099,8.58,11.099c3.24,0,5.76-1.199,7.56-3.54l5.7,4.14
		c-3.06,4.319-7.439,6.42-13.14,6.42c-17.999,0-21.479-22.62-8.279-30.119c3.24-1.86,7.14-2.52,10.859-1.98
		c9.959,1.44,10.56,10.14,6.54,12.06C273.403,24.137,259.543,23.296,257.444,32.716z"/>
	<path fill="#212121" d="M293.022,30.856c2.46,2.1,6.06,1.92,9.06,1.62c7.62-0.66,3.78-7.979-2.64-7.62
		c-4.56,0.24-8.64,4.08-8.76,9.479c-0.12,4.5,2.52,9,6.78,9.72c3.06,0.54,6.479-0.42,8.939-2.94l6.3,3.06
		c-3.24,4.859-7.74,6.84-13.5,6.84c-16.079,0-20.279-18.659-11.52-27.839c3.18-3.42,7.74-4.74,12.18-4.74
		c14.819,0,18.059,16.8,5.4,19.919C296.623,40.516,290.623,36.796,293.022,30.856z"/>
	<path fill="#212121" d="M325.842,23.537c1.26-2.76,5.46-4.08,8.279-4.26c2.94-0.18,5.94,0.72,8.34,3.18
		c1.74,1.8,2.64,4.44,2.64,7.92v19.979h-7.499c0-3.899,0.3-17.579-0.48-20.399c-0.66-2.399-2.52-3.72-4.56-3.72
		c-2.7,0-4.26,1.56-4.26,3.9c-0.9-0.24-2.04-1.38-2.46-2.46v22.679h-7.56V14.477c0-3.84,2.94-6.18,7.56-6.12V23.537z"/>
	<path fill="#212121" d="M380.441,42.976c-5.22,9.18-18.06,11.04-25.679,3.42c-4.32-4.38-5.82-10.56-4.141-16.259
		c2.16-7.02,13.8-6.479,14.52,0.3c-2.46-1.74-7.319-0.18-7.38,4.5c0.061,12,16.979,11.879,16.979-0.12
		c0-6.18-4.739-9.899-10.319-8.759c-2.34-2.82-7.319-3.54-10.8-1.44c3.18-3.84,7.56-6.06,12.54-6.06
		C378.761,18.557,386.741,31.996,380.441,42.976z"/>
	<path fill="#212121" d="M395.021,50.355h-7.56c0-11.939,0-23.879,0-35.878c0-3.84,2.939-6.18,7.56-6.12
		C395.021,22.336,395.021,36.376,395.021,50.355z"/>
	<path fill="#212121" d="M423.521,46.996c-8.82,8.759-23.7,2.76-23.7-11.82c0-9.42,7.139-16.14,14.76-15.839
		c7.979,0.3,8.699,6.899,7.318,9.419c-1.318-1.92-4.139-2.46-6.299-2.46c-10.859,0-11.039,17.819-0.061,17.819
		c6.18,0,7.98-6.179,7.98-11.639V8.417c4.68,0.12,7.559,2.94,7.559,6.12v35.759h-7.559V46.996z"/>
	<path fill="#212121" d="M446.021,30.856c2.459,2.1,6.059,1.92,9.059,1.62c7.621-0.66,3.781-7.979-2.639-7.62
		c-4.561,0.24-8.641,4.08-8.76,9.479c-0.121,4.5,2.52,9,6.779,9.72c3.061,0.54,6.48-0.42,8.939-2.94l6.301,3.06
		c-3.24,4.859-7.74,6.84-13.5,6.84c-16.08,0-20.279-18.659-11.52-27.839c3.18-3.42,7.74-4.74,12.18-4.74
		c14.818,0,18.059,16.8,5.398,19.919C449.621,40.516,443.621,36.796,446.021,30.856z"/>
	<path fill="#212121" d="M478,19.157v3.96c1.32-2.76,3.541-4.56,6.121-4.68c6.658-0.42,8.459,6.9,4.979,9.48
		c-1.439-3.96-9.299-2.4-9.898,4.38c-0.121,1.92-0.121,3.9-0.121,5.459v12.6h-7.799V19.157H478z"/>
	<path fill="#212121" d="M178.391,85.91v4.445H165.37c0-6.931,0-13.896,0-20.827c0-2.311,1.82-3.71,4.62-3.676
		c0,6.687,0,13.372,0,20.058H178.391z"/>
	<path fill="#212121" d="M202.716,69.144c2.485,2.485,3.71,5.53,3.71,9.101c0,3.535-1.19,6.546-3.64,8.996s-5.391,3.676-8.891,3.676
		c-3.64,0-6.686-1.261-9.101-3.781c-2.415-2.52-3.605-5.53-3.605-8.995c0-1.365,0.245-3.466,0.945-4.831
		c2.275-4.551,10.676-3.641,9.206,2.03c-1.785-2.135-5.636-1.155-5.46,3.431c0.105,2.45,1.05,4.375,2.87,5.846
		c1.47,1.225,3.186,1.854,5.146,1.854c2.17,0,4.025-0.805,5.565-2.38c1.541-1.61,2.311-3.535,2.311-5.881
		c0-2.31-0.77-4.271-2.311-5.881c-1.575-1.574-3.43-2.38-5.67-2.38c-1.015,0-1.925,0.14-2.8,0.455
		c-1.68-1.54-4.795-1.646-7.036-0.245c0.98-1.225,2.17-2.24,3.535-3.045c1.996-1.155,4.096-1.716,6.371-1.716
		C197.291,65.397,200.266,66.658,202.716,69.144z"/>
	<path fill="#212121" d="M215.979,72.294c-5.146,5.075-1.68,14.176,6.301,14.176c3.15,0,5.53-1.33,6.406-4.165h-6.476
		c-2.45,0-3.71-2.205-3.535-4.341h15.191c0.77,8.472-5.88,13.057-12.181,12.986c-4.305-0.069-8.681-2.17-11.061-6.37
		c-2.765-4.865-2.1-10.536,1.015-14.457c2.24-2.835,5.811-4.76,10.326-4.76c6.686,0,12.951,4.13,8.716,9.24
		C229.316,70.264,220.565,67.778,215.979,72.294z"/>
	<path fill="#212121" d="M257.91,69.144c2.485,2.485,3.71,5.53,3.71,9.101c0,3.535-1.19,6.546-3.64,8.996s-5.391,3.676-8.891,3.676
		c-3.64,0-6.686-1.261-9.101-3.781c-2.415-2.52-3.605-5.53-3.605-8.995c0-1.365,0.245-3.466,0.945-4.831
		c2.275-4.551,10.676-3.641,9.206,2.03c-1.785-2.135-5.636-1.155-5.46,3.431c0.105,2.45,1.05,4.375,2.87,5.846
		c1.47,1.225,3.186,1.854,5.146,1.854c2.17,0,4.025-0.805,5.565-2.38c1.541-1.61,2.311-3.535,2.311-5.881
		c0-2.31-0.77-4.271-2.311-5.881c-1.575-1.574-3.43-2.38-5.67-2.38c-1.015,0-1.925,0.14-2.8,0.455
		c-1.68-1.54-4.795-1.646-7.036-0.245c0.98-1.225,2.17-2.24,3.535-3.045c1.996-1.155,4.096-1.716,6.371-1.716
		C252.485,65.397,255.46,66.658,257.91,69.144z"/>
</g>
<g>
	<path d="M177,35.477"/>
</g>
</svg>
