<?xml version="1.0" encoding="utf-8"?>
<!-- Generator: Adobe Illustrator 16.0.0, SVG Export Plug-In . SVG Version: 6.00 Build 0)  -->
<!DOCTYPE svg PUBLIC "-//W3C//DTD SVG 1.1//EN" "http://www.w3.org/Graphics/SVG/1.1/DTD/svg11.dtd">
<svg version="1.1" id="Capa_1" xmlns="http://www.w3.org/2000/svg" xmlns:xlink="http://www.w3.org/1999/xlink" x="0px" y="0px"
	 width="300px" height="300px" viewBox="0 0 300 300" enable-background="new 0 0 300 300" xml:space="preserve">
<g opacity="0.7">
	<g>
		<g>
			<path fill="#FFFFFF" d="M245.094,93.207c-3.229,0-5.852,2.621-5.852,5.851v173.848H55.75V49.268h108.262
				c3.23,0,5.848-2.62,5.848-5.848c0-3.232-2.617-5.852-5.848-5.852H49.902c-3.229,0-5.85,2.62-5.85,5.852v235.338
				c0,3.229,2.62,5.849,5.85,5.849h195.192c3.229,0,5.848-2.619,5.848-5.849v-179.7C250.942,95.828,248.328,93.207,245.094,93.207z"
				/>
		</g>
	</g>
	<g>
		<path fill="#FFFFFF" d="M204.793,168.229H90.202c-3.943,0-7.143-3.197-7.143-7.143s3.198-7.143,7.143-7.143h114.591
			c3.945,0,7.145,3.197,7.145,7.143S208.739,168.229,204.793,168.229z"/>
	</g>
	<g>
		<path fill="#FFFFFF" d="M204.793,203.347H90.202c-3.943,0-7.143-3.197-7.143-7.143c0-3.944,3.198-7.143,7.143-7.143h114.591
			c3.945,0,7.145,3.197,7.145,7.143C211.936,200.149,208.739,203.347,204.793,203.347z"/>
	</g>
	<g>
		<path fill="#FFFFFF" d="M204.793,238.538H90.202c-3.943,0-7.143-3.197-7.143-7.144c0-3.942,3.198-7.142,7.143-7.142h114.591
			c3.945,0,7.145,3.197,7.145,7.142C211.936,235.341,208.739,238.538,204.793,238.538z"/>
	</g>
</g>
<g opacity="0.7">
	
		<line fill="none" stroke="#FFFFFF" stroke-width="12" stroke-linecap="round" stroke-miterlimit="10" x1="215.52" y1="24.199" x2="215.52" y2="105.058"/>
	
		<line fill="none" stroke="#FFFFFF" stroke-width="12" stroke-linecap="round" stroke-miterlimit="10" x1="175.09" y1="64.629" x2="255.948" y2="64.629"/>
</g>
</svg>
