<?xml version="1.0" encoding="utf-8"?>
<!-- Generator: Adobe Illustrator 16.0.0, SVG Export Plug-In . SVG Version: 6.00 Build 0)  -->
<!DOCTYPE svg PUBLIC "-//W3C//DTD SVG 1.1//EN" "http://www.w3.org/Graphics/SVG/1.1/DTD/svg11.dtd">
<svg version="1.1" id="Capa_1" xmlns="http://www.w3.org/2000/svg" xmlns:xlink="http://www.w3.org/1999/xlink" x="0px" y="0px"
	 width="300px" height="300px" viewBox="0 0 300 300" enable-background="new 0 0 300 300" xml:space="preserve">
<g opacity="0.7">
	<g>
		<g>
			<path fill="#FFFFFF" d="M230.159,18.184l-66.4,66.396c-0.52,0.529-0.897,1.188-1.09,1.91l-5.698,21.946
				c-0.368,1.438,0.043,2.966,1.096,4.015c0.794,0.795,1.864,1.226,2.956,1.226c0.354,0,0.708-0.043,1.054-0.131l21.954-5.704
				c0.718-0.188,1.381-0.563,1.905-1.09l66.392-66.399c0.004,0,0.009-0.002,0.009-0.002c0-0.002,0-0.005,0-0.005l13.374-13.367
				c1.639-1.636,1.639-4.283,0-5.919L249.46,4.805c-0.785-0.782-1.854-1.224-2.958-1.224c-1.112,0-2.18,0.441-2.962,1.224
				l-13.37,13.372v0.002C230.163,18.182,230.159,18.184,230.159,18.184z M180.823,100.024l-13.954,3.623l3.625-13.949l62.629-62.64
				l10.336,10.329L180.823,100.024z M246.501,13.689l10.319,10.331l-7.448,7.448l-10.325-10.329L246.501,13.689z"/>
		</g>
		<g>
			<path fill="#FFFFFF" d="M248.575,79.1c-3.229,0-5.853,2.621-5.853,5.851v187.955H59.231V49.268h108.263
				c3.229,0,5.848-2.62,5.848-5.848c0-3.232-2.617-5.852-5.848-5.852H53.383c-3.229,0-5.85,2.62-5.85,5.852v235.338
				c0,3.229,2.62,5.849,5.85,5.849h195.192c3.229,0,5.848-2.619,5.848-5.849V84.95C254.423,81.721,251.81,79.1,248.575,79.1z"/>
		</g>
	</g>
	<g>
		<path fill="#FFFFFF" d="M208.274,168.229H93.683c-3.943,0-7.143-3.197-7.143-7.143s3.198-7.143,7.143-7.143h114.592
			c3.944,0,7.144,3.197,7.144,7.143S212.219,168.229,208.274,168.229z"/>
	</g>
	<g>
		<path fill="#FFFFFF" d="M208.274,203.347H93.683c-3.943,0-7.143-3.197-7.143-7.143c0-3.944,3.198-7.143,7.143-7.143h114.592
			c3.944,0,7.144,3.197,7.144,7.143C215.417,200.149,212.219,203.347,208.274,203.347z"/>
	</g>
	<g>
		<path fill="#FFFFFF" d="M208.274,238.538H93.683c-3.943,0-7.143-3.197-7.143-7.144c0-3.942,3.198-7.142,7.143-7.142h114.592
			c3.944,0,7.144,3.197,7.144,7.142C215.417,235.341,212.219,238.538,208.274,238.538z"/>
	</g>
</g>
</svg>
