<?xml version="1.0" encoding="utf-8"?>
<!-- Generator: Adobe Illustrator 16.0.0, SVG Export Plug-In . SVG Version: 6.00 Build 0)  -->
<!DOCTYPE svg PUBLIC "-//W3C//DTD SVG 1.1//EN" "http://www.w3.org/Graphics/SVG/1.1/DTD/svg11.dtd">
<svg version="1.1" id="Layer_1" xmlns="http://www.w3.org/2000/svg" xmlns:xlink="http://www.w3.org/1999/xlink" x="0px" y="0px"
	 width="60px" height="60px" viewBox="0 0 60 60" enable-background="new 0 0 60 60" xml:space="preserve">
<g>
	<path fill="#FFFFFF" d="M2.5,59.502c-0.512,0-1.023-0.195-1.414-0.586c-0.781-0.781-0.781-2.047,0-2.828l55-55.002
		c0.781-0.781,2.047-0.781,2.828,0c0.781,0.781,0.781,2.047,0,2.828l-55,55.002C3.524,59.307,3.012,59.502,2.5,59.502z"/>
</g>
<g>
	<path fill="#FFFFFF" d="M57.5,59.502c-0.512,0-1.023-0.195-1.414-0.586l-55-55.002c-0.781-0.781-0.781-2.047,0-2.828
		c0.78-0.781,2.047-0.781,2.828,0l55,55.002c0.781,0.781,0.781,2.047,0,2.828C58.523,59.307,58.012,59.502,57.5,59.502z"/>
</g>
</svg>
