<?xml version="1.0" encoding="utf-8"?>
<!-- Generator: Adobe Illustrator 16.0.0, SVG Export Plug-In . SVG Version: 6.00 Build 0)  -->
<!DOCTYPE svg PUBLIC "-//W3C//DTD SVG 1.1//EN" "http://www.w3.org/Graphics/SVG/1.1/DTD/svg11.dtd">
<svg version="1.1" id="Layer_1" xmlns="http://www.w3.org/2000/svg" xmlns:xlink="http://www.w3.org/1999/xlink" x="0px" y="0px"
	 width="60px" height="60px" viewBox="0 0 60 60" enable-background="new 0 0 60 60" xml:space="preserve">
<g>
	<path d="M18.178,20.018H16.03c-0.048-0.24-0.072-0.492-0.072-0.756c0-0.248,0.024-0.492,0.072-0.732h6.06
		c0.048,0.24,0.072,0.484,0.072,0.732c0,0.264-0.024,0.516-0.072,0.756h-2.148v7.14c-0.144,0.016-0.288,0.029-0.432,0.042
		s-0.284,0.019-0.42,0.019c-0.136,0-0.282-0.005-0.438-0.013c-0.156-0.008-0.314-0.024-0.474-0.048V20.018z"/>
	<path d="M23.301,18.53h4.896c0.049,0.24,0.072,0.484,0.072,0.732c0,0.264-0.023,0.516-0.072,0.756h-3.144v1.872h2.496
		c0.048,0.256,0.072,0.504,0.072,0.744c0,0.256-0.024,0.508-0.072,0.756h-2.496v2.28h3.228c0.049,0.24,0.072,0.484,0.072,0.732
		c0,0.264-0.023,0.516-0.072,0.756h-4.98V18.53z"/>
	<path d="M30.945,22.646l-1.548-4.104c0.159-0.024,0.317-0.04,0.474-0.048c0.156-0.008,0.31-0.012,0.462-0.012
		c0.288,0,0.588,0.024,0.9,0.072l1.367,4.128l-1.716,4.464c-0.2,0.031-0.37,0.054-0.51,0.066c-0.14,0.012-0.278,0.018-0.414,0.018
		c-0.144,0-0.286-0.006-0.426-0.018c-0.141-0.013-0.302-0.031-0.486-0.055L30.945,22.646z M32.685,22.682l1.345-4.128
		c0.312-0.048,0.611-0.072,0.899-0.072c0.152,0,0.307,0.004,0.462,0.012c0.156,0.008,0.314,0.024,0.475,0.048l-1.524,4.104
		l1.872,4.512c-0.184,0.023-0.346,0.042-0.486,0.055c-0.14,0.012-0.281,0.018-0.426,0.018c-0.136,0-0.273-0.006-0.414-0.018
		c-0.14-0.013-0.31-0.035-0.51-0.066L32.685,22.682z"/>
	<path d="M38.948,20.018h-2.147c-0.048-0.24-0.072-0.492-0.072-0.756c0-0.248,0.024-0.492,0.072-0.732h6.06
		c0.049,0.24,0.072,0.484,0.072,0.732c0,0.264-0.023,0.516-0.072,0.756h-2.147v7.14c-0.145,0.016-0.288,0.029-0.433,0.042
		c-0.144,0.013-0.283,0.019-0.42,0.019c-0.136,0-0.281-0.005-0.438-0.013s-0.314-0.024-0.475-0.048V20.018z"/>
	<path d="M8.697,32.93c0.296-0.048,0.58-0.072,0.852-0.072c0.28,0,0.572,0.024,0.876,0.072v7.116h2.988
		c0.024,0.136,0.04,0.266,0.048,0.39c0.008,0.124,0.012,0.242,0.012,0.354c0,0.128-0.004,0.254-0.012,0.378
		c-0.008,0.124-0.024,0.254-0.048,0.39H8.697V32.93z"/>
	<path d="M16.618,32.93c0.168-0.023,0.328-0.042,0.48-0.055c0.152-0.012,0.32-0.018,0.504-0.018c0.16,0,0.316,0.006,0.468,0.018
		c0.152,0.013,0.32,0.031,0.504,0.055l2.7,8.628c-0.328,0.048-0.648,0.072-0.96,0.072c-0.304,0-0.6-0.024-0.888-0.072l-0.48-1.728
		h-2.856l-0.492,1.728c-0.288,0.048-0.564,0.072-0.828,0.072c-0.296,0-0.588-0.024-0.876-0.072L16.618,32.93z M18.538,38.378
		l-0.996-3.624l-1.044,3.624H18.538z"/>
	<path d="M23.494,38.474l-2.688-5.544c0.336-0.048,0.672-0.072,1.008-0.072c0.304,0,0.608,0.024,0.912,0.072l1.704,3.912l1.68-3.912
		c0.296-0.048,0.6-0.072,0.912-0.072c0.288,0,0.596,0.024,0.924,0.072l-2.688,5.544v3.096c-0.16,0.024-0.312,0.04-0.456,0.048
		c-0.144,0.009-0.288,0.013-0.432,0.013c-0.136,0-0.278-0.004-0.426-0.013c-0.148-0.008-0.298-0.023-0.45-0.048V38.474z"/>
	<path d="M31.822,41.701c-0.648,0-1.209-0.111-1.682-0.336c-0.471-0.224-0.859-0.533-1.164-0.93
		c-0.303-0.396-0.529-0.864-0.678-1.404c-0.147-0.54-0.222-1.13-0.222-1.77s0.074-1.234,0.222-1.782
		c0.148-0.548,0.375-1.022,0.678-1.422c0.305-0.399,0.693-0.712,1.164-0.937c0.473-0.223,1.033-0.336,1.682-0.336
		c0.646,0,1.207,0.113,1.68,0.336c0.471,0.225,0.859,0.537,1.164,0.937c0.303,0.399,0.529,0.874,0.678,1.422
		s0.221,1.143,0.221,1.782s-0.072,1.229-0.221,1.77s-0.375,1.009-0.678,1.404c-0.305,0.396-0.693,0.706-1.164,0.93
		C33.029,41.59,32.469,41.701,31.822,41.701z M31.822,40.237c1.238,0,1.859-0.991,1.859-2.976c0-0.992-0.15-1.736-0.451-2.232
		c-0.299-0.496-0.766-0.744-1.396-0.744c-1.256,0-1.885,0.992-1.885,2.977S30.574,40.237,31.822,40.237z"/>
	<path d="M36.97,32.93c0.152-0.023,0.3-0.04,0.444-0.048c0.144-0.009,0.292-0.013,0.443-0.013c0.137,0,0.276,0.004,0.42,0.013
		c0.145,0.008,0.292,0.024,0.444,0.048v4.476c0,0.488,0.018,0.906,0.054,1.254c0.036,0.349,0.108,0.637,0.217,0.864
		c0.107,0.229,0.26,0.396,0.455,0.504c0.196,0.108,0.45,0.162,0.763,0.162c0.312,0,0.563-0.054,0.756-0.162
		c0.192-0.107,0.342-0.275,0.45-0.504c0.107-0.228,0.18-0.516,0.216-0.864c0.036-0.348,0.054-0.766,0.054-1.254V32.93
		c0.16-0.023,0.313-0.04,0.456-0.048c0.145-0.009,0.284-0.013,0.42-0.013c0.145,0,0.29,0.004,0.438,0.013
		c0.147,0.008,0.298,0.024,0.45,0.048v4.848c0,0.584-0.049,1.118-0.145,1.603c-0.096,0.483-0.268,0.897-0.516,1.242
		c-0.248,0.344-0.58,0.609-0.996,0.798c-0.416,0.188-0.944,0.281-1.584,0.281c-0.641,0-1.168-0.094-1.584-0.281
		c-0.416-0.188-0.748-0.454-0.996-0.798c-0.248-0.345-0.42-0.759-0.517-1.242c-0.096-0.484-0.144-1.019-0.144-1.603V32.93z"/>
	<path d="M46.748,34.418h-2.147c-0.048-0.24-0.072-0.492-0.072-0.756c0-0.248,0.024-0.492,0.072-0.732h6.06
		c0.049,0.24,0.072,0.484,0.072,0.732c0,0.264-0.023,0.516-0.072,0.756h-2.147v7.14c-0.145,0.016-0.288,0.03-0.433,0.042
		c-0.144,0.012-0.283,0.018-0.42,0.018c-0.136,0-0.281-0.004-0.438-0.012s-0.314-0.023-0.475-0.048V34.418z"/>
</g>
</svg>
