<?xml version="1.0" encoding="utf-8"?>
<!-- Generator: Adobe Illustrator 16.0.0, SVG Export Plug-In . SVG Version: 6.00 Build 0)  -->
<!DOCTYPE svg PUBLIC "-//W3C//DTD SVG 1.1//EN" "http://www.w3.org/Graphics/SVG/1.1/DTD/svg11.dtd">
<svg version="1.1" id="Layer_1" xmlns="http://www.w3.org/2000/svg" xmlns:xlink="http://www.w3.org/1999/xlink" x="0px" y="0px"
	 width="80px" height="80px" viewBox="0.083 0.083 80 80" enable-background="new 0.083 0.083 80 80" xml:space="preserve">
<linearGradient id="SVGID_1_" gradientUnits="userSpaceOnUse" x1="497.0254" y1="-216.291" x2="497.0254" y2="-279.6226" gradientTransform="matrix(1 0 0 -1 -197.5996 -119.9902)">
	<stop  offset="0" style="stop-color:#333333"/>
	<stop  offset="1" style="stop-color:#444444"/>
</linearGradient>
<path fill="url(#SVGID_1_)" d="M329.766,96.301c-1.879,0-3.404,1.524-3.404,3.403c0,0.044,0,2.856,0,3.399
	c-0.145,14.732-12.17,26.674-26.938,26.674c-14.779,0-26.814-11.963-26.939-26.713v-3.36c0-1.879-1.523-3.403-3.402-3.403
	s-3.402,1.524-3.402,3.403c0,0.048,0,3.45,0,3.496c0,0.042,0.01,0.081,0.012,0.123c0.248,17.237,13.479,31.391,30.336,33.084v16.431
	h-17.161c-1.878,0-3.399,1.52-3.398,3.396c0,1.877,1.521,3.397,3.398,3.397c0.046,0,41.069,0,41.116,0
	c1.877,0,3.398-1.521,3.398-3.397s-1.521-3.396-3.398-3.396h-17.158c0-4.152,0-12.49,0-16.431
	c16.857-1.694,30.086-15.847,30.334-33.084c0.002-0.042,0.014-0.081,0.014-0.123v-3.496
	C333.168,97.825,331.645,96.301,329.766,96.301z"/>
<g>
	<path d="M390.922,129.979c11.125,0,20.145-9.02,20.145-20.145v-41c0-11.127-9.018-20.146-20.145-20.146
		c-11.125,0-20.146,9.02-20.146,20.146c0,0.273,0,40.725,0,41C370.775,120.959,379.797,129.979,390.922,129.979z"/>
	
		<linearGradient id="SVGID_2_" gradientUnits="userSpaceOnUse" x1="588.5205" y1="-171.2852" x2="588.5205" y2="-249.3618" gradientTransform="matrix(1 0 0 -1 -197.5996 -119.9902)">
		<stop  offset="0" style="stop-color:#252525"/>
		<stop  offset="1" style="stop-color:#333333"/>
	</linearGradient>
	<path fill="url(#SVGID_2_)" d="M390.922,129.371c-9.854,0-19.838-7.828-19.838-19.836V69.163c0-9.853,9.984-17.868,19.838-17.868
		c9.852,0,19.836,8.016,19.836,17.868v40.372C410.758,121.378,400.773,129.371,390.922,129.371z"/>
	
		<linearGradient id="SVGID_3_" gradientUnits="userSpaceOnUse" x1="588.5254" y1="-223.2915" x2="588.5254" y2="-286.6226" gradientTransform="matrix(1 0 0 -1 -197.5996 -119.9902)">
		<stop  offset="0" style="stop-color:#333333"/>
		<stop  offset="1" style="stop-color:#444444"/>
	</linearGradient>
	<path fill="url(#SVGID_3_)" d="M421.266,103.301c-1.879,0-3.404,1.524-3.404,3.403c0,0.044,0,2.856,0,3.399
		c-0.145,14.732-12.17,26.674-26.938,26.674c-14.779,0-26.814-11.963-26.939-26.713v-3.36c0-1.879-1.523-3.403-3.402-3.403
		s-3.402,1.524-3.402,3.403c0,0.048,0,3.45,0,3.496c0,0.042,0.01,0.081,0.012,0.123c0.248,17.237,13.479,31.391,30.336,33.084
		v16.431h-17.162c-1.877,0-3.398,1.52-3.396,3.396c0,1.877,1.52,3.397,3.396,3.397c0.047,0,41.07,0,41.117,0
		c1.877,0,3.398-1.521,3.398-3.397s-1.521-3.396-3.398-3.396h-17.158c0-4.152,0-12.49,0-16.431
		c16.857-1.694,30.086-15.847,30.334-33.084c0.002-0.042,0.014-0.081,0.014-0.123v-3.496
		C424.668,104.825,423.145,103.301,421.266,103.301z"/>
</g>
<g>
	<g>
		
			<linearGradient id="SVGID_4_" gradientUnits="userSpaceOnUse" x1="435.2832" y1="718.5645" x2="435.2832" y2="643.5645" gradientTransform="matrix(1 0 0 1 -395.1992 -640.9805)">
			<stop  offset="0" style="stop-color:#EB9B23"/>
			<stop  offset="1" style="stop-color:#B76C27"/>
		</linearGradient>
		<circle fill="url(#SVGID_4_)" cx="40.084" cy="40.083" r="37.5"/>
		
			<linearGradient id="SVGID_5_" gradientUnits="userSpaceOnUse" x1="237.6846" y1="-124.1304" x2="237.6846" y2="-196.0176" gradientTransform="matrix(1 0 0 -1 -197.5996 -119.9902)">
			<stop  offset="0" style="stop-color:#EB9B23"/>
			<stop  offset="1" style="stop-color:#B76C27"/>
		</linearGradient>
		<path fill="url(#SVGID_5_)" d="M40.084,76.027c-19.82,0-35.944-16.125-35.944-35.944c0-19.819,16.124-35.943,35.944-35.943
			s35.944,16.125,35.944,35.943C76.029,59.903,59.904,76.027,40.084,76.027z"/>
	</g>
	<g>
		<g>
			<path d="M39.816,49.401c4.329,0,7.837-3.508,7.837-7.836V25.613c0-4.329-3.509-7.837-7.837-7.837
				c-4.328,0-7.838,3.509-7.838,7.837c0,0.107,0,15.844,0,15.952C31.978,45.893,35.488,49.401,39.816,49.401z"/>
			
				<linearGradient id="SVGID_6_" gradientUnits="userSpaceOnUse" x1="237.416" y1="-138.7808" x2="237.416" y2="-169.1558" gradientTransform="matrix(1 0 0 -1 -197.5996 -119.9902)">
				<stop  offset="0" style="stop-color:#252525"/>
				<stop  offset="1" style="stop-color:#333333"/>
			</linearGradient>
			<path fill="url(#SVGID_6_)" d="M39.816,49.166c-3.833,0-7.718-3.045-7.718-7.717V25.741c0-3.833,3.885-6.951,7.718-6.951
				s7.718,3.118,7.718,6.951v15.707C47.534,46.056,43.648,49.166,39.816,49.166z"/>
			
				<linearGradient id="SVGID_7_" gradientUnits="userSpaceOnUse" x1="237.416" y1="-159.0132" x2="237.416" y2="-183.6523" gradientTransform="matrix(1 0 0 -1 -197.5996 -119.9902)">
				<stop  offset="0" style="stop-color:#333333"/>
				<stop  offset="1" style="stop-color:#444444"/>
			</linearGradient>
			<path fill="url(#SVGID_7_)" d="M51.622,39.023c-0.731,0-1.325,0.593-1.325,1.324c0,0.017,0,1.111,0,1.323
				c-0.057,5.732-4.735,10.377-10.48,10.377c-5.75,0-10.433-4.654-10.481-10.393v-1.307c0-0.731-0.593-1.324-1.324-1.324
				c-0.731,0-1.324,0.593-1.324,1.324c0,0.019,0,1.342,0,1.359c0,0.017,0.004,0.032,0.005,0.049
				c0.096,6.707,5.243,12.213,11.801,12.871v6.392h-6.677c-0.73,0-1.322,0.592-1.322,1.321c0,0.731,0.592,1.322,1.322,1.322
				c0.019,0,15.979,0,15.997,0c0.73,0,1.322-0.591,1.322-1.322c0-0.73-0.592-1.321-1.322-1.321h-6.676c0-1.615,0-4.859,0-6.392
				c6.559-0.659,11.706-6.166,11.802-12.871c0.001-0.017,0.005-0.032,0.005-0.049v-1.359C52.945,39.616,52.352,39.023,51.622,39.023
				z"/>
		</g>
		<g>
			<g>
				<path fill="#333333" d="M39.815,48.642c-3.717,0-7.717-3.528-7.717-7.194c0,4.78,3.594,7.953,7.749,7.953
					c4.153,0,7.687-3.255,7.687-7.953C47.534,45.114,43.534,48.642,39.815,48.642z"/>
				<path fill="#5E5E5E" d="M39.815,49.056c-3.717,0-7.717-2.926-7.717-7.608c0,4.78,3.594,7.953,7.749,7.953
					c4.153,0,7.687-3.255,7.687-7.953C47.534,45.984,43.534,49.056,39.815,49.056z"/>
			</g>
		</g>
		<g>
			<path d="M50.317,40.367c0.001-0.647,0.657-1.173,1.304-1.173c0.647,0,1.303,0.526,1.305,1.173h0.02v-0.02
				c0-0.731-0.593-1.324-1.323-1.324c-0.731,0-1.324,0.593-1.324,1.324c0,0.001,0,0.008,0,0.02H50.317z"/>
		</g>
		<g>
			<path d="M26.708,40.367c0.001-0.647,0.657-1.173,1.304-1.173s1.303,0.526,1.304,1.173h0.021v-0.02
				c0-0.731-0.593-1.324-1.324-1.324s-1.324,0.593-1.324,1.324c0,0.001,0,0.008,0,0.02H26.708z"/>
		</g>
		<g>
			<g>
				<g>
					<path d="M31.836,61.146v-0.132h-0.021c-0.731,0-1.324,0.592-1.324,1.324C30.491,61.725,31.077,61.146,31.836,61.146z"/>
				</g>
				<path d="M38.494,61.019l-6.677-0.004c0,0-0.421,0.073-0.37,0.167c0.259-0.043,0.502-0.036,0.502-0.036l6.693,0.043
					L38.494,61.019z"/>
			</g>
			<g>
				<g>
					<path d="M47.8,61.146v-0.132h0.02c0.732,0,1.324,0.592,1.324,1.324C49.144,61.692,48.575,61.146,47.8,61.146z"/>
				</g>
				<path d="M41.139,61.019l6.679-0.004c0,0,0.42,0.073,0.371,0.167c-0.26-0.043-0.504-0.036-0.504-0.036l-6.683,0.043
					L41.139,61.019z"/>
			</g>
		</g>
		<g>
			<g>
				<g>
					<path fill="#777777" d="M31.836,63.488v0.175h-0.021c-0.731,0-1.324-0.593-1.324-1.324
						C30.491,62.703,30.771,63.488,31.836,63.488z"/>
				</g>
				<polygon fill="#777777" points="38.494,63.658 31.817,63.663 31.299,63.488 38.643,63.488 				"/>
			</g>
			<g>
				<g>
					<path fill="#777777" d="M47.8,63.488v0.175h0.02c0.732,0,1.324-0.593,1.324-1.324C49.144,63.123,48.364,63.488,47.8,63.488z"/>
				</g>
				<polygon fill="#777777" points="37.78,63.658 47.817,63.663 48.364,63.488 37.366,63.488 				"/>
			</g>
		</g>
		<g>
			<g>
				<path fill="#262626" d="M39.879,52.071c-5.107,0-10.323-3.917-10.543-10.417c0.226,6.648,4.804,10.758,10.511,10.758
					c5.705,0,10.209-4.294,10.45-10.742C50.059,48.035,44.985,52.071,39.879,52.071z"/>
			</g>
		</g>
		<g>
			<g>
				<path fill="#262626" d="M39.879,52.071c-5.107,0-10.323-3.917-10.543-10.417c0.226,6.648,4.804,10.758,10.511,10.758
					c5.705,0,10.209-4.294,10.45-10.742C50.059,48.035,44.985,52.071,39.879,52.071z"/>
			</g>
		</g>
		<g>
			<path fill="#5E5E5E" d="M38.339,54.345c-6.361-0.841-11.878-6.262-11.652-13.167c-0.231,7.068,5.224,12.788,11.806,13.462
				l0.15-0.243L38.339,54.345z"/>
		</g>
		<path fill="#5E5E5E" d="M41.151,54.397h-0.155l0.143,0.241c6.467-0.674,11.95-6.134,11.807-13.441
			C53.082,48.138,47.503,53.634,41.151,54.397z"/>
		<polygon opacity="0.3" fill="#5E5E5E" enable-background="new    " points="38.643,54.397 38.493,54.64 38.494,61.019 
			38.643,61.188 		"/>
		<polygon opacity="0.3" fill="#5E5E5E" enable-background="new    " points="40.996,54.397 41.151,54.64 41.149,61.019 
			41.002,61.188 		"/>
	</g>
</g>
</svg>
