<?xml version="1.0" encoding="utf-8"?>
<!-- Generator: Adobe Illustrator 16.0.0, SVG Export Plug-In . SVG Version: 6.00 Build 0)  -->
<!DOCTYPE svg PUBLIC "-//W3C//DTD SVG 1.1//EN" "http://www.w3.org/Graphics/SVG/1.1/DTD/svg11.dtd">
<svg version="1.1" id="Layer_1" xmlns="http://www.w3.org/2000/svg" xmlns:xlink="http://www.w3.org/1999/xlink" x="0px" y="0px"
	 width="200px" height="200px" viewBox="0 0 200 200" enable-background="new 0 0 200 200" xml:space="preserve">
<linearGradient id="SVGID_1_" gradientUnits="userSpaceOnUse" x1="298.2129" y1="-316.3784" x2="298.2129" y2="-123.6021" gradientTransform="matrix(1 0 0 -1 -197.5996 -119.9902)">
	<stop  offset="0" style="stop-color:#45A13C"/>
	<stop  offset="1" style="stop-color:#5FB776"/>
</linearGradient>
<circle fill="url(#SVGID_1_)" cx="100.611" cy="100" r="96.388"/>
<linearGradient id="SVGID_2_" gradientUnits="userSpaceOnUse" x1="100.6123" y1="7.6118" x2="100.6123" y2="192.3892">
	<stop  offset="0" style="stop-color:#45A13C"/>
	<stop  offset="1" style="stop-color:#5FB776"/>
</linearGradient>
<path fill="url(#SVGID_2_)" d="M100.611,192.389c-50.942,0-92.387-41.445-92.387-92.389c0-50.943,41.445-92.388,92.387-92.388
	C151.555,7.612,193,49.057,193,100C193,150.943,151.555,192.389,100.611,192.389z"/>
<g>
	<g>
		<path d="M99.922,123.951c11.125,0,20.145-9.02,20.145-20.145v-41c0-11.126-9.019-20.146-20.145-20.146s-20.146,9.02-20.146,20.146
			c0,0.274,0,40.725,0,41C79.776,114.932,88.796,123.951,99.922,123.951z"/>
		<linearGradient id="SVGID_3_" gradientUnits="userSpaceOnUse" x1="99.9209" y1="45.2676" x2="99.9209" y2="123.3442">
			<stop  offset="0" style="stop-color:#252525"/>
			<stop  offset="1" style="stop-color:#333333"/>
		</linearGradient>
		<path fill="url(#SVGID_3_)" d="M99.922,123.344c-9.853,0-19.837-7.828-19.837-19.836V63.136c0-9.853,9.985-17.868,19.837-17.868
			c9.852,0,19.836,8.015,19.836,17.868v40.372C119.758,115.351,109.773,123.344,99.922,123.344z"/>
		<linearGradient id="SVGID_4_" gradientUnits="userSpaceOnUse" x1="99.9224" y1="97.2739" x2="99.9224" y2="160.606">
			<stop  offset="0" style="stop-color:#333333"/>
			<stop  offset="1" style="stop-color:#444444"/>
		</linearGradient>
		<path fill="url(#SVGID_4_)" d="M130.266,97.274c-1.879,0-3.404,1.524-3.404,3.403c0,0.044,0,2.856,0,3.399
			c-0.146,14.733-12.17,26.675-26.938,26.675c-14.78,0-26.815-11.963-26.94-26.714v-3.36c0-1.879-1.524-3.403-3.403-3.403
			s-3.403,1.524-3.403,3.403c0,0.048,0,3.45,0,3.496c0,0.042,0.011,0.081,0.012,0.123c0.248,17.238,13.478,31.391,30.335,33.084
			v16.431H79.363c-1.877,0-3.399,1.52-3.398,3.396c0,1.877,1.521,3.398,3.398,3.398c0.046,0,41.071,0,41.118,0
			c1.877,0,3.397-1.521,3.397-3.398s-1.521-3.396-3.397-3.396h-17.158c0-4.152,0-12.491,0-16.431
			c16.856-1.694,30.086-15.847,30.333-33.084c0.002-0.042,0.013-0.081,0.013-0.123v-3.496
			C133.668,98.798,132.145,97.274,130.266,97.274z"/>
	</g>
	<g>
		<g>
			<path fill="#333333" d="M99.921,122c-9.555,0-19.836-9.07-19.836-18.492c0,12.284,9.238,20.443,19.915,20.443
				c10.675,0,19.759-8.368,19.759-20.443C119.758,112.93,109.477,122,99.921,122z"/>
			<path fill="#5E5E5E" d="M99.921,123.063c-9.555,0-19.836-7.521-19.836-19.555c0,12.284,9.238,20.443,19.915,20.443
				c10.675,0,19.759-8.368,19.759-20.443C119.758,115.167,109.477,123.063,99.921,123.063z"/>
		</g>
	</g>
	<g>
		<path d="M126.913,100.729c0.003-1.663,1.688-3.015,3.351-3.015c1.664,0,3.349,1.352,3.353,3.015h0.052v-0.052
			c0-1.879-1.524-3.403-3.404-3.403c-1.878,0-3.402,1.523-3.402,3.403c0,0.002,0,0.021,0,0.052H126.913z"/>
	</g>
	<g>
		<path d="M66.229,100.729c0.003-1.663,1.688-3.015,3.351-3.015c1.664,0,3.349,1.352,3.353,3.015h0.052v-0.052
			c0-1.88-1.524-3.403-3.404-3.403c-1.878,0-3.402,1.523-3.402,3.403c0,0.002,0,0.021,0,0.052H66.229z"/>
	</g>
	<g>
		<g>
			<g>
				<path d="M79.409,154.139v-0.34h-0.052c-1.88,0-3.403,1.524-3.403,3.404C75.954,155.626,77.458,154.139,79.409,154.139z"/>
			</g>
			<path d="M96.525,153.811l-17.162-0.012c0,0-1.082,0.189-0.952,0.43c0.667-0.11,1.292-0.092,1.292-0.092l17.203,0.11
				L96.525,153.811z"/>
		</g>
		<g>
			<g>
				<path d="M120.441,154.139v-0.34h0.051c1.881,0,3.404,1.524,3.404,3.404C123.896,155.542,122.438,154.139,120.441,154.139z"/>
			</g>
			<path d="M103.322,153.811l17.165-0.012c0,0,1.082,0.189,0.952,0.43c-0.667-0.11-1.293-0.092-1.293-0.092l-17.178,0.11
				L103.322,153.811z"/>
		</g>
	</g>
	<g>
		<g>
			<g>
				<path fill="#777777" d="M79.409,160.159v0.448h-0.052c-1.88,0-3.403-1.524-3.403-3.404
					C75.954,158.141,76.672,160.159,79.409,160.159z"/>
			</g>
			<polygon fill="#777777" points="96.525,160.596 79.363,160.607 78.031,160.159 96.906,160.159 			"/>
		</g>
		<g>
			<g>
				<path fill="#777777" d="M120.441,160.159v0.448h0.051c1.881,0,3.404-1.524,3.404-3.404
					C123.896,159.219,121.893,160.159,120.441,160.159z"/>
			</g>
			<polygon fill="#777777" points="94.688,160.596 120.487,160.607 121.893,160.159 93.625,160.159 			"/>
		</g>
	</g>
	<g>
		<g>
			<path fill="#262626" d="M100.084,130.813c-13.128,0-26.534-10.069-27.101-26.775c0.58,17.088,12.348,27.65,27.017,27.65
				c14.662,0,26.242-11.035,26.861-27.611C126.25,120.438,113.209,130.813,100.084,130.813z"/>
		</g>
	</g>
	<g>
		<g>
			<path fill="#262626" d="M100.084,130.813c-13.128,0-26.534-10.069-27.101-26.775c0.58,17.088,12.348,27.65,27.017,27.65
				c14.662,0,26.242-11.035,26.861-27.611C126.25,120.438,113.209,130.813,100.084,130.813z"/>
		</g>
	</g>
	<g>
		<path fill="#5E5E5E" d="M96.125,136.656c-16.349-2.16-30.531-16.094-29.951-33.844C65.58,120.98,79.6,135.682,96.521,137.416
			l0.385-0.625L96.125,136.656z"/>
	</g>
	<path fill="#5E5E5E" d="M103.354,136.791h-0.398l0.367,0.618c16.62-1.73,30.715-15.764,30.346-34.548
		C134.019,120.7,119.682,134.83,103.354,136.791z"/>
	<polygon opacity="0.3" fill="#5E5E5E" points="96.906,136.791 96.521,137.416 96.525,153.811 96.906,154.247 	"/>
	<polygon opacity="0.3" fill="#5E5E5E" points="102.955,136.791 103.354,137.416 103.35,153.811 102.969,154.247 	"/>
</g>
</svg>
