<?xml version="1.0" encoding="utf-8"?>
<!-- Generator: Adobe Illustrator 16.0.0, SVG Export Plug-In . SVG Version: 6.00 Build 0)  -->
<!DOCTYPE svg PUBLIC "-//W3C//DTD SVG 1.1//EN" "http://www.w3.org/Graphics/SVG/1.1/DTD/svg11.dtd">
<svg version="1.1" id="Layer_1" xmlns="http://www.w3.org/2000/svg" xmlns:xlink="http://www.w3.org/1999/xlink" x="0px" y="0px"
	 width="80px" height="80px" viewBox="60 60 80 80" enable-background="new 60 60 80 80" xml:space="preserve">
<g>
	
		<linearGradient id="SVGID_1_" gradientUnits="userSpaceOnUse" x1="495.1992" y1="778.4805" x2="495.1992" y2="703.4805" gradientTransform="matrix(1 0 0 1 -395.1992 -640.9805)">
		<stop  offset="0" style="stop-color:#45A13C"/>
		<stop  offset="1" style="stop-color:#5FB776"/>
	</linearGradient>
	<circle fill="url(#SVGID_1_)" cx="100" cy="100" r="37.5"/>
	
		<linearGradient id="SVGID_2_" gradientUnits="userSpaceOnUse" x1="297.5996" y1="-184.0469" x2="297.5996" y2="-255.9351" gradientTransform="matrix(1 0 0 -1 -197.5996 -119.9902)">
		<stop  offset="0" style="stop-color:#45A13C"/>
		<stop  offset="1" style="stop-color:#5FB776"/>
	</linearGradient>
	<path fill="url(#SVGID_2_)" d="M100,135.944c-19.819,0-35.944-16.125-35.944-35.944S80.181,64.057,100,64.057
		S135.944,80.181,135.944,100S119.819,135.944,100,135.944z"/>
	<g>
		<g>
			<path d="M99.731,109.318c4.328,0,7.838-3.509,7.838-7.837V85.53c0-4.329-3.509-7.838-7.838-7.838
				c-4.329,0-7.838,3.509-7.838,7.838c0,0.106,0,15.844,0,15.952C91.894,105.81,95.403,109.318,99.731,109.318z"/>
			
				<linearGradient id="SVGID_3_" gradientUnits="userSpaceOnUse" x1="297.332" y1="-198.6968" x2="297.332" y2="-229.0728" gradientTransform="matrix(1 0 0 -1 -197.5996 -119.9902)">
				<stop  offset="0" style="stop-color:#252525"/>
				<stop  offset="1" style="stop-color:#333333"/>
			</linearGradient>
			<path fill="url(#SVGID_3_)" d="M99.731,109.082c-3.833,0-7.717-3.046-7.717-7.717V85.658c0-3.833,3.884-6.952,7.717-6.952
				s7.718,3.118,7.718,6.952v15.707C107.449,105.973,103.564,109.082,99.731,109.082z"/>
			
				<linearGradient id="SVGID_4_" gradientUnits="userSpaceOnUse" x1="297.332" y1="-218.9297" x2="297.332" y2="-243.5698" gradientTransform="matrix(1 0 0 -1 -197.5996 -119.9902)">
				<stop  offset="0" style="stop-color:#333333"/>
				<stop  offset="1" style="stop-color:#444444"/>
			</linearGradient>
			<path fill="url(#SVGID_4_)" d="M111.537,98.939c-0.731,0-1.324,0.593-1.324,1.324c0,0.017,0,1.111,0,1.322
				c-0.057,5.731-4.735,10.378-10.48,10.378c-5.75,0-10.433-4.654-10.481-10.394v-1.307c0-0.731-0.593-1.324-1.324-1.324
				s-1.324,0.593-1.324,1.324c0,0.019,0,1.342,0,1.36c0,0.016,0.004,0.031,0.004,0.048c0.097,6.706,5.244,12.213,11.802,12.871
				v6.393h-6.677c-0.73,0-1.322,0.591-1.322,1.321c0,0.73,0.592,1.322,1.322,1.322c0.018,0,15.979,0,15.998,0
				c0.729,0,1.321-0.592,1.321-1.322s-0.592-1.321-1.321-1.321h-6.676c0-1.615,0-4.859,0-6.393
				c6.559-0.659,11.705-6.165,11.802-12.871c0-0.017,0.005-0.032,0.005-0.048v-1.36C112.86,99.532,112.268,98.939,111.537,98.939z"
				/>
		</g>
		<g>
			<g>
				<path fill="#333333" d="M99.731,108.56c-3.717,0-7.717-3.529-7.717-7.194c0,4.778,3.594,7.953,7.748,7.953
					c4.153,0,7.688-3.256,7.688-7.953C107.449,105.03,103.449,108.56,99.731,108.56z"/>
				<path fill="#5E5E5E" d="M99.731,108.973c-3.717,0-7.717-2.926-7.717-7.607c0,4.778,3.594,7.953,7.748,7.953
					c4.153,0,7.688-3.256,7.688-7.953C107.449,105.9,103.449,108.973,99.731,108.973z"/>
			</g>
		</g>
		<g>
			<path d="M110.232,100.284c0.001-0.647,0.657-1.173,1.304-1.173c0.647,0,1.304,0.526,1.305,1.173h0.021v-0.02
				c0-0.731-0.594-1.324-1.324-1.324c-0.731,0-1.324,0.593-1.324,1.324c0,0.001,0,0.008,0,0.02H110.232z"/>
		</g>
		<g>
			<path d="M86.624,100.284c0.001-0.647,0.656-1.173,1.304-1.173c0.647,0,1.303,0.526,1.304,1.173h0.02v-0.02
				c0-0.731-0.593-1.324-1.324-1.324c-0.73,0-1.323,0.593-1.323,1.324c0,0.001,0,0.008,0,0.02H86.624z"/>
		</g>
		<g>
			<g>
				<g>
					<path d="M91.751,121.063v-0.132h-0.02c-0.731,0-1.324,0.593-1.324,1.324C90.407,121.642,90.992,121.063,91.751,121.063z"/>
				</g>
				<path d="M98.41,120.936l-6.677-0.005c0,0-0.421,0.073-0.37,0.167c0.259-0.042,0.502-0.035,0.502-0.035l6.693,0.043
					L98.41,120.936z"/>
			</g>
			<g>
				<g>
					<path d="M107.715,121.063v-0.132h0.02c0.732,0,1.324,0.593,1.324,1.324C109.059,121.608,108.491,121.063,107.715,121.063z"/>
				</g>
				<path d="M101.055,120.936l6.678-0.005c0,0,0.421,0.073,0.371,0.167c-0.261-0.042-0.504-0.035-0.504-0.035l-6.683,0.043
					L101.055,120.936z"/>
			</g>
		</g>
		<g>
			<g>
				<g>
					<path fill="#777777" d="M91.751,123.405v0.174h-0.02c-0.731,0-1.324-0.593-1.324-1.324
						C90.407,122.62,90.686,123.405,91.751,123.405z"/>
				</g>
				<polygon fill="#777777" points="98.41,123.575 91.733,123.579 91.215,123.405 98.558,123.405 				"/>
			</g>
			<g>
				<g>
					<path fill="#777777" d="M107.715,123.405v0.174h0.02c0.732,0,1.324-0.593,1.324-1.324
						C109.059,123.039,108.279,123.405,107.715,123.405z"/>
				</g>
				<polygon fill="#777777" points="97.695,123.575 107.732,123.579 108.279,123.405 97.282,123.405 				"/>
			</g>
		</g>
		<g>
			<g>
				<path fill="#262626" d="M99.795,111.987c-5.108,0-10.323-3.917-10.544-10.416c0.226,6.647,4.804,10.757,10.511,10.757
					c5.705,0,10.21-4.293,10.451-10.742C109.975,107.951,104.901,111.987,99.795,111.987z"/>
			</g>
		</g>
		<g>
			<g>
				<path fill="#262626" d="M99.795,111.987c-5.108,0-10.323-3.917-10.544-10.416c0.226,6.647,4.804,10.757,10.511,10.757
					c5.705,0,10.21-4.293,10.451-10.742C109.975,107.951,104.901,111.987,99.795,111.987z"/>
			</g>
		</g>
		<g>
			<path fill="#5E5E5E" d="M98.254,114.262c-6.361-0.841-11.878-6.262-11.652-13.167c-0.231,7.068,5.223,12.787,11.807,13.462
				l0.149-0.243L98.254,114.262z"/>
		</g>
		<path fill="#5E5E5E" d="M101.066,114.313h-0.154l0.143,0.241c6.467-0.673,11.95-6.134,11.807-13.441
			C112.997,108.054,107.419,113.551,101.066,114.313z"/>
		<polygon opacity="0.3" fill="#5E5E5E" enable-background="new    " points="98.558,114.313 98.409,114.557 98.41,120.936 
			98.558,121.105 		"/>
		<polygon opacity="0.3" fill="#5E5E5E" enable-background="new    " points="100.912,114.313 101.066,114.557 101.065,120.936 
			100.917,121.105 		"/>
	</g>
</g>
</svg>
