<?xml version="1.0" encoding="utf-8"?>
<!-- Generator: Adobe Illustrator 16.0.0, SVG Export Plug-In . SVG Version: 6.00 Build 0)  -->
<!DOCTYPE svg PUBLIC "-//W3C//DTD SVG 1.1//EN" "http://www.w3.org/Graphics/SVG/1.1/DTD/svg11.dtd">
<svg version="1.1" id="Layer_1" xmlns="http://www.w3.org/2000/svg" xmlns:xlink="http://www.w3.org/1999/xlink" x="0px" y="0px"
	 width="80px" height="80px" viewBox="60 60 80 80" enable-background="new 60 60 80 80" xml:space="preserve">
<linearGradient id="SVGID_1_" gradientUnits="userSpaceOnUse" x1="497.0254" y1="-216.291" x2="497.0254" y2="-279.6226" gradientTransform="matrix(1 0 0 -1 -197.5996 -119.9902)">
	<stop  offset="0" style="stop-color:#333333"/>
	<stop  offset="1" style="stop-color:#444444"/>
</linearGradient>
<path fill="url(#SVGID_1_)" d="M329.766,96.301c-1.879,0-3.404,1.524-3.404,3.403c0,0.044,0,2.856,0,3.399
	c-0.145,14.732-12.17,26.674-26.938,26.674c-14.779,0-26.814-11.963-26.939-26.713v-3.36c0-1.879-1.523-3.403-3.402-3.403
	s-3.402,1.524-3.402,3.403c0,0.048,0,3.45,0,3.496c0,0.042,0.01,0.081,0.012,0.123c0.248,17.237,13.479,31.391,30.336,33.084v16.431
	h-17.161c-1.878,0-3.399,1.52-3.398,3.396c0,1.877,1.521,3.397,3.398,3.397c0.046,0,41.069,0,41.116,0
	c1.877,0,3.398-1.521,3.398-3.397s-1.521-3.396-3.398-3.396h-17.158c0-4.152,0-12.49,0-16.431
	c16.857-1.694,30.086-15.847,30.334-33.084c0.002-0.042,0.014-0.081,0.014-0.123v-3.496
	C333.168,97.825,331.645,96.301,329.766,96.301z"/>
<g>
	<path d="M390.922,129.979c11.125,0,20.145-9.02,20.145-20.145v-41c0-11.127-9.018-20.146-20.145-20.146
		c-11.125,0-20.146,9.02-20.146,20.146c0,0.273,0,40.725,0,41C370.775,120.959,379.797,129.979,390.922,129.979z"/>
	
		<linearGradient id="SVGID_2_" gradientUnits="userSpaceOnUse" x1="588.5205" y1="-171.2852" x2="588.5205" y2="-249.3618" gradientTransform="matrix(1 0 0 -1 -197.5996 -119.9902)">
		<stop  offset="0" style="stop-color:#252525"/>
		<stop  offset="1" style="stop-color:#333333"/>
	</linearGradient>
	<path fill="url(#SVGID_2_)" d="M390.922,129.371c-9.854,0-19.838-7.828-19.838-19.836V69.163c0-9.853,9.984-17.868,19.838-17.868
		c9.852,0,19.836,8.016,19.836,17.868v40.372C410.758,121.378,400.773,129.371,390.922,129.371z"/>
	
		<linearGradient id="SVGID_3_" gradientUnits="userSpaceOnUse" x1="588.5254" y1="-223.2915" x2="588.5254" y2="-286.6226" gradientTransform="matrix(1 0 0 -1 -197.5996 -119.9902)">
		<stop  offset="0" style="stop-color:#333333"/>
		<stop  offset="1" style="stop-color:#444444"/>
	</linearGradient>
	<path fill="url(#SVGID_3_)" d="M421.266,103.301c-1.879,0-3.404,1.524-3.404,3.403c0,0.044,0,2.856,0,3.399
		c-0.145,14.732-12.17,26.674-26.938,26.674c-14.779,0-26.814-11.963-26.939-26.713v-3.36c0-1.879-1.523-3.403-3.402-3.403
		s-3.402,1.524-3.402,3.403c0,0.048,0,3.45,0,3.496c0,0.042,0.01,0.081,0.012,0.123c0.248,17.237,13.479,31.391,30.336,33.084
		v16.431h-17.162c-1.877,0-3.398,1.52-3.396,3.396c0,1.877,1.52,3.397,3.396,3.397c0.047,0,41.07,0,41.117,0
		c1.877,0,3.398-1.521,3.398-3.397s-1.521-3.396-3.398-3.396h-17.158c0-4.152,0-12.49,0-16.431
		c16.857-1.694,30.086-15.847,30.334-33.084c0.002-0.042,0.014-0.081,0.014-0.123v-3.496
		C424.668,104.825,423.145,103.301,421.266,103.301z"/>
</g>
<g>
	<g>
		
			<linearGradient id="SVGID_4_" gradientUnits="userSpaceOnUse" x1="495.1992" y1="778.4805" x2="495.1992" y2="703.4814" gradientTransform="matrix(1 0 0 1 -395.1992 -640.9805)">
			<stop  offset="0" style="stop-color:#B76C27"/>
			<stop  offset="1" style="stop-color:#EB9B23"/>
		</linearGradient>
		<circle fill="url(#SVGID_4_)" cx="100" cy="100" r="37.5"/>
		
			<linearGradient id="SVGID_5_" gradientUnits="userSpaceOnUse" x1="297.5996" y1="-184.0474" x2="297.5996" y2="-255.936" gradientTransform="matrix(1 0 0 -1 -197.5996 -119.9902)">
			<stop  offset="0" style="stop-color:#B76C27"/>
			<stop  offset="1" style="stop-color:#EB9B23"/>
		</linearGradient>
		<path fill="url(#SVGID_5_)" d="M100,135.945c-19.819,0-35.944-16.125-35.944-35.945c0-19.819,16.125-35.943,35.944-35.943
			S135.944,80.181,135.944,100C135.944,119.82,119.819,135.945,100,135.945z"/>
	</g>
	<g>
		<g>
			<path d="M99.731,109.318c4.328,0,7.838-3.508,7.838-7.836V85.53c0-4.329-3.509-7.838-7.838-7.838
				c-4.329,0-7.838,3.509-7.838,7.838c0,0.106,0,15.845,0,15.952C91.894,105.811,95.403,109.318,99.731,109.318z"/>
			
				<linearGradient id="SVGID_6_" gradientUnits="userSpaceOnUse" x1="297.332" y1="-198.6973" x2="297.332" y2="-229.0728" gradientTransform="matrix(1 0 0 -1 -197.5996 -119.9902)">
				<stop  offset="0" style="stop-color:#252525"/>
				<stop  offset="1" style="stop-color:#333333"/>
			</linearGradient>
			<path fill="url(#SVGID_6_)" d="M99.731,109.082c-3.833,0-7.717-3.045-7.717-7.717V85.659c0-3.833,3.884-6.952,7.717-6.952
				s7.718,3.118,7.718,6.952v15.707C107.449,105.973,103.564,109.082,99.731,109.082z"/>
			
				<linearGradient id="SVGID_7_" gradientUnits="userSpaceOnUse" x1="297.332" y1="-218.9302" x2="297.332" y2="-243.5708" gradientTransform="matrix(1 0 0 -1 -197.5996 -119.9902)">
				<stop  offset="0" style="stop-color:#333333"/>
				<stop  offset="1" style="stop-color:#444444"/>
			</linearGradient>
			<path fill="url(#SVGID_7_)" d="M111.537,98.94c-0.731,0-1.324,0.593-1.324,1.324c0,0.017,0,1.111,0,1.322
				c-0.057,5.732-4.735,10.379-10.48,10.379c-5.75,0-10.433-4.654-10.481-10.395v-1.306c0-0.731-0.593-1.324-1.324-1.324
				s-1.324,0.593-1.324,1.324c0,0.019,0,1.341,0,1.361c0,0.016,0.004,0.031,0.004,0.047c0.097,6.707,5.244,12.213,11.802,12.871
				v6.393h-6.677c-0.73,0-1.322,0.592-1.322,1.322c0,0.73,0.592,1.322,1.322,1.322c0.018,0,15.979,0,15.998,0
				c0.729,0,1.321-0.592,1.321-1.322s-0.592-1.322-1.321-1.322h-6.676c0-1.615,0-4.859,0-6.393
				c6.559-0.658,11.705-6.164,11.802-12.871c0-0.016,0.005-0.031,0.005-0.047v-1.361C112.86,99.533,112.268,98.94,111.537,98.94z"/>
		</g>
		<g>
			<g>
				<path fill="#333333" d="M99.731,108.561c-3.717,0-7.717-3.529-7.717-7.195c0,4.779,3.594,7.953,7.748,7.953
					c4.153,0,7.687-3.256,7.687-7.953C107.449,105.031,103.449,108.561,99.731,108.561z"/>
				<path fill="#5E5E5E" d="M99.731,108.973c-3.717,0-7.717-2.926-7.717-7.607c0,4.779,3.594,7.953,7.748,7.953
					c4.153,0,7.687-3.256,7.687-7.953C107.449,105.9,103.449,108.973,99.731,108.973z"/>
			</g>
		</g>
		<g>
			<path d="M110.232,100.284c0.001-0.647,0.657-1.173,1.304-1.173c0.647,0,1.304,0.526,1.305,1.173h0.021v-0.02
				c0-0.731-0.594-1.324-1.324-1.324c-0.731,0-1.324,0.593-1.324,1.324c0,0.001,0,0.008,0,0.02H110.232z"/>
		</g>
		<g>
			<path d="M86.624,100.284c0.001-0.647,0.656-1.173,1.304-1.173c0.647,0,1.303,0.526,1.304,1.173h0.02v-0.02
				c0-0.731-0.593-1.324-1.324-1.324c-0.73,0-1.323,0.593-1.323,1.324c0,0.001,0,0.008,0,0.02H86.624z"/>
		</g>
		<g>
			<g>
				<g>
					<path d="M91.751,121.063v-0.131h-0.02c-0.731,0-1.324,0.592-1.324,1.324C90.407,121.643,90.992,121.063,91.751,121.063z"/>
				</g>
				<path d="M98.41,120.936l-6.677-0.004c0,0-0.421,0.072-0.37,0.166c0.259-0.041,0.502-0.035,0.502-0.035l6.693,0.043
					L98.41,120.936z"/>
			</g>
			<g>
				<g>
					<path d="M107.715,121.063v-0.131h0.02c0.732,0,1.324,0.592,1.324,1.324C109.059,121.609,108.491,121.063,107.715,121.063z"/>
				</g>
				<path d="M101.055,120.936l6.678-0.004c0,0,0.421,0.072,0.371,0.166c-0.261-0.041-0.504-0.035-0.504-0.035l-6.683,0.043
					L101.055,120.936z"/>
			</g>
		</g>
		<g>
			<g>
				<g>
					<path fill="#777777" d="M91.751,123.406v0.174h-0.02c-0.731,0-1.324-0.594-1.324-1.324
						C90.407,122.621,90.686,123.406,91.751,123.406z"/>
				</g>
				<polygon fill="#777777" points="98.41,123.576 91.733,123.58 91.215,123.406 98.558,123.406 				"/>
			</g>
			<g>
				<g>
					<path fill="#777777" d="M107.715,123.406v0.174h0.02c0.732,0,1.324-0.594,1.324-1.324
						C109.059,123.039,108.279,123.406,107.715,123.406z"/>
				</g>
				<polygon fill="#777777" points="97.695,123.576 107.732,123.58 108.279,123.406 97.282,123.406 				"/>
			</g>
		</g>
		<g>
			<g>
				<path fill="#262626" d="M99.795,111.988c-5.108,0-10.323-3.918-10.544-10.416c0.226,6.646,4.804,10.756,10.511,10.756
					c5.705,0,10.209-4.293,10.451-10.742C109.975,107.951,104.901,111.988,99.795,111.988z"/>
			</g>
		</g>
		<g>
			<g>
				<path fill="#262626" d="M99.795,111.988c-5.108,0-10.323-3.918-10.544-10.416c0.226,6.646,4.804,10.756,10.511,10.756
					c5.705,0,10.209-4.293,10.451-10.742C109.975,107.951,104.901,111.988,99.795,111.988z"/>
			</g>
		</g>
		<g>
			<path fill="#5E5E5E" d="M98.254,114.262c-6.361-0.84-11.878-6.262-11.652-13.166c-0.231,7.068,5.223,12.787,11.807,13.461
				l0.149-0.242L98.254,114.262z"/>
		</g>
		<path fill="#5E5E5E" d="M101.066,114.314h-0.154l0.143,0.24c6.467-0.672,11.95-6.133,11.807-13.441
			C112.997,108.055,107.419,113.551,101.066,114.314z"/>
		<polygon opacity="0.3" fill="#5E5E5E" enable-background="new    " points="98.558,114.314 98.409,114.557 98.41,120.936 
			98.558,121.105 		"/>
		<polygon opacity="0.3" fill="#5E5E5E" enable-background="new    " points="100.912,114.314 101.066,114.557 101.065,120.936 
			100.917,121.105 		"/>
	</g>
</g>
</svg>
