<?xml version="1.0" encoding="utf-8"?>
<!-- Generator: Adobe Illustrator 16.0.0, SVG Export Plug-In . SVG Version: 6.00 Build 0)  -->
<!DOCTYPE svg PUBLIC "-//W3C//DTD SVG 1.1//EN" "http://www.w3.org/Graphics/SVG/1.1/DTD/svg11.dtd">
<svg version="1.1" id="Layer_1" xmlns="http://www.w3.org/2000/svg" xmlns:xlink="http://www.w3.org/1999/xlink" x="0px" y="0px"
	 width="80px" height="80px" viewBox="60 60 80 80" enable-background="new 60 60 80 80" xml:space="preserve">
<g>
	
		<linearGradient id="SVGID_1_" gradientUnits="userSpaceOnUse" x1="495.1855" y1="778.4805" x2="495.1855" y2="703.4814" gradientTransform="matrix(1 0 0 1 -395.1992 -640.9805)">
		<stop  offset="0" style="stop-color:#5FB776"/>
		<stop  offset="1" style="stop-color:#45A13C"/>
	</linearGradient>
	<circle fill="url(#SVGID_1_)" cx="99.986" cy="100" r="37.5"/>
	
		<linearGradient id="SVGID_2_" gradientUnits="userSpaceOnUse" x1="297.5859" y1="-184.0474" x2="297.5859" y2="-255.936" gradientTransform="matrix(1 0 0 -1 -197.5996 -119.9902)">
		<stop  offset="0" style="stop-color:#5FB776"/>
		<stop  offset="1" style="stop-color:#45A13C"/>
	</linearGradient>
	<path fill="url(#SVGID_2_)" d="M99.986,135.945c-19.819,0-35.944-16.125-35.944-35.945c0-19.819,16.125-35.943,35.944-35.943
		S135.931,80.181,135.931,100C135.931,119.82,119.806,135.945,99.986,135.945z"/>
	<g>
		<g>
			<path d="M99.718,109.318c4.328,0,7.838-3.508,7.838-7.836V85.53c0-4.329-3.509-7.838-7.838-7.838
				c-4.329,0-7.838,3.509-7.838,7.838c0,0.106,0,15.845,0,15.952C91.88,105.811,95.389,109.318,99.718,109.318z"/>
			
				<linearGradient id="SVGID_3_" gradientUnits="userSpaceOnUse" x1="297.3184" y1="-198.6973" x2="297.3184" y2="-229.0728" gradientTransform="matrix(1 0 0 -1 -197.5996 -119.9902)">
				<stop  offset="0" style="stop-color:#252525"/>
				<stop  offset="1" style="stop-color:#333333"/>
			</linearGradient>
			<path fill="url(#SVGID_3_)" d="M99.718,109.082c-3.833,0-7.717-3.045-7.717-7.717V85.659c0-3.833,3.884-6.952,7.717-6.952
				s7.718,3.118,7.718,6.952v15.707C107.436,105.973,103.551,109.082,99.718,109.082z"/>
			
				<linearGradient id="SVGID_4_" gradientUnits="userSpaceOnUse" x1="297.3184" y1="-218.9302" x2="297.3184" y2="-243.5708" gradientTransform="matrix(1 0 0 -1 -197.5996 -119.9902)">
				<stop  offset="0" style="stop-color:#333333"/>
				<stop  offset="1" style="stop-color:#444444"/>
			</linearGradient>
			<path fill="url(#SVGID_4_)" d="M111.523,98.94c-0.731,0-1.324,0.593-1.324,1.325c0,0.017,0,1.11,0,1.321
				c-0.057,5.732-4.735,10.379-10.48,10.379c-5.75,0-10.433-4.654-10.481-10.395v-1.306c0-0.732-0.593-1.325-1.324-1.325
				s-1.324,0.593-1.324,1.325c0,0.018,0,1.341,0,1.36c0,0.016,0.004,0.031,0.004,0.047c0.097,6.707,5.244,12.213,11.802,12.871
				v6.393h-6.677c-0.73,0-1.322,0.592-1.322,1.322c0,0.73,0.592,1.322,1.322,1.322c0.018,0,15.979,0,15.998,0
				c0.729,0,1.321-0.592,1.321-1.322s-0.592-1.322-1.321-1.322h-6.676c0-1.615,0-4.859,0-6.393
				c6.559-0.658,11.705-6.164,11.802-12.871c0-0.016,0.005-0.031,0.005-0.047v-1.36C112.847,99.533,112.254,98.94,111.523,98.94z"/>
		</g>
		<g>
			<g>
				<path fill="#333333" d="M99.718,108.561c-3.717,0-7.717-3.529-7.717-7.195c0,4.779,3.594,7.953,7.748,7.953
					c4.153,0,7.688-3.256,7.688-7.953C107.436,105.031,103.436,108.561,99.718,108.561z"/>
				<path fill="#5E5E5E" d="M99.718,108.973c-3.717,0-7.717-2.926-7.717-7.607c0,4.779,3.594,7.953,7.748,7.953
					c4.153,0,7.688-3.256,7.688-7.953C107.436,105.9,103.436,108.973,99.718,108.973z"/>
			</g>
		</g>
		<g>
			<path d="M110.219,100.284c0.001-0.647,0.657-1.173,1.304-1.173c0.647,0,1.304,0.526,1.305,1.173h0.021v-0.02
				c0-0.732-0.594-1.325-1.324-1.325c-0.731,0-1.324,0.593-1.324,1.325c0,0,0,0.008,0,0.02H110.219z"/>
		</g>
		<g>
			<path d="M86.61,100.284c0.001-0.647,0.656-1.173,1.304-1.173c0.647,0,1.303,0.526,1.304,1.173h0.02v-0.02
				c0-0.732-0.593-1.325-1.324-1.325c-0.73,0-1.323,0.593-1.323,1.325c0,0,0,0.008,0,0.02H86.61z"/>
		</g>
		<g>
			<g>
				<g>
					<path d="M91.737,121.063v-0.131h-0.02c-0.731,0-1.324,0.592-1.324,1.324C90.393,121.643,90.979,121.063,91.737,121.063z"/>
				</g>
				<path d="M98.396,120.936l-6.677-0.004c0,0-0.421,0.072-0.37,0.166c0.259-0.041,0.502-0.035,0.502-0.035l6.693,0.043
					L98.396,120.936z"/>
			</g>
			<g>
				<g>
					<path d="M107.701,121.063v-0.131h0.02c0.732,0,1.324,0.592,1.324,1.324C109.045,121.609,108.478,121.063,107.701,121.063z"/>
				</g>
				<path d="M101.041,120.936l6.678-0.004c0,0,0.421,0.072,0.371,0.166c-0.261-0.041-0.504-0.035-0.504-0.035l-6.683,0.043
					L101.041,120.936z"/>
			</g>
		</g>
		<g>
			<g>
				<g>
					<path fill="#777777" d="M91.737,123.406v0.174h-0.02c-0.731,0-1.324-0.594-1.324-1.324
						C90.393,122.621,90.672,123.406,91.737,123.406z"/>
				</g>
				<polygon fill="#777777" points="98.396,123.576 91.719,123.58 91.201,123.406 98.545,123.406 				"/>
			</g>
			<g>
				<g>
					<path fill="#777777" d="M107.701,123.406v0.174h0.02c0.732,0,1.324-0.594,1.324-1.324
						C109.045,123.039,108.266,123.406,107.701,123.406z"/>
				</g>
				<polygon fill="#777777" points="97.682,123.576 107.719,123.58 108.266,123.406 97.268,123.406 				"/>
			</g>
		</g>
		<g>
			<g>
				<path fill="#262626" d="M99.781,111.988c-5.108,0-10.323-3.918-10.544-10.416c0.226,6.646,4.804,10.756,10.511,10.756
					c5.705,0,10.21-4.293,10.451-10.742C109.961,107.951,104.888,111.988,99.781,111.988z"/>
			</g>
		</g>
		<g>
			<g>
				<path fill="#262626" d="M99.781,111.988c-5.108,0-10.323-3.918-10.544-10.416c0.226,6.646,4.804,10.756,10.511,10.756
					c5.705,0,10.21-4.293,10.451-10.742C109.961,107.951,104.888,111.988,99.781,111.988z"/>
			</g>
		</g>
		<g>
			<path fill="#5E5E5E" d="M98.241,114.262c-6.361-0.84-11.878-6.262-11.652-13.166c-0.231,7.068,5.223,12.787,11.806,13.461
				l0.15-0.242L98.241,114.262z"/>
		</g>
		<path fill="#5E5E5E" d="M101.053,114.314h-0.154l0.143,0.24c6.467-0.672,11.95-6.133,11.807-13.441
			C112.983,108.055,107.405,113.551,101.053,114.314z"/>
		<polygon opacity="0.3" fill="#5E5E5E" enable-background="new    " points="98.545,114.314 98.395,114.557 98.396,120.936 
			98.545,121.105 		"/>
		<polygon opacity="0.3" fill="#5E5E5E" enable-background="new    " points="100.898,114.314 101.053,114.557 101.052,120.936 
			100.903,121.105 		"/>
	</g>
</g>
</svg>
