<?xml version="1.0" encoding="utf-8"?>
<!-- Generator: Adobe Illustrator 16.0.0, SVG Export Plug-In . SVG Version: 6.00 Build 0)  -->
<!DOCTYPE svg PUBLIC "-//W3C//DTD SVG 1.1//EN" "http://www.w3.org/Graphics/SVG/1.1/DTD/svg11.dtd">
<svg version="1.1" id="Layer_1" xmlns="http://www.w3.org/2000/svg" xmlns:xlink="http://www.w3.org/1999/xlink" x="0px" y="0px"
	 width="60px" height="60px" viewBox="0 0 60 60" enable-background="new 0 0 60 60" xml:space="preserve">
<g>
	<rect y="16.875" fill="none" width="60" height="32.125"/>
</g>
<g enable-background="new    ">
	<g>
		<path d="M6.26,16.875h1.65v9h2.715v1.5H6.26V16.875z"/>
	</g>
	<g>
		<path d="M19.685,27.375H18.02l-0.285-1.905h-2.025l-0.285,1.905H13.91l1.68-10.5h2.415L19.685,27.375z M15.919,24.045h1.59
			l-0.795-5.31L15.919,24.045z"/>
	</g>
	<g>
		<path d="M24.26,23.896l-2.085-7.021H23.9l1.26,4.785l1.26-4.785h1.575l-2.085,7.021v3.479h-1.65V23.896z"/>
	</g>
	<g>
		<path d="M31.295,19.396c0-1.68,0.885-2.64,2.504-2.64c1.621,0,2.506,0.96,2.506,2.64v5.46c0,1.68-0.885,2.64-2.506,2.64
			c-1.619,0-2.504-0.96-2.504-2.64V19.396z M32.944,24.96c0,0.75,0.33,1.035,0.854,1.035c0.525,0,0.855-0.285,0.855-1.035v-5.67
			c0-0.75-0.33-1.034-0.855-1.034c-0.524,0-0.854,0.284-0.854,1.034V24.96z"/>
	</g>
	<g>
		<path d="M41.943,16.875v8.1c0,0.75,0.33,1.021,0.855,1.021s0.855-0.271,0.855-1.021v-8.1h1.559v7.995c0,1.68-0.84,2.64-2.459,2.64
			s-2.459-0.96-2.459-2.64v-7.995H41.943z"/>
	</g>
	<g>
		<path d="M48.859,16.875h5.1v1.5h-1.725v9h-1.65v-9h-1.725V16.875z"/>
	</g>
</g>
<g enable-background="new    ">
	<path d="M27.917,36.195c1.275,0,1.56-0.615,1.815-1.32h1.109v10.5h-1.649v-8.01h-1.275V36.195z"/>
</g>
</svg>
