<?xml version="1.0" encoding="utf-8"?>
<!-- Generator: Adobe Illustrator 16.0.0, SVG Export Plug-In . SVG Version: 6.00 Build 0)  -->
<!DOCTYPE svg PUBLIC "-//W3C//DTD SVG 1.1//EN" "http://www.w3.org/Graphics/SVG/1.1/DTD/svg11.dtd">
<svg version="1.1" id="Layer_1" xmlns="http://www.w3.org/2000/svg" xmlns:xlink="http://www.w3.org/1999/xlink" x="0px" y="0px"
	 width="60px" height="60px" viewBox="0 0 60 60" enable-background="new 0 0 60 60" xml:space="preserve">
<rect y="16.875" fill="none" width="60" height="32.125"/>
<g enable-background="new    ">
	<path d="M30.113,36.256c-0.525,0-0.854,0.284-0.854,1.034v1.125h-1.56v-1.02c0-1.68,0.84-2.64,2.46-2.64
		c1.619,0,2.459,0.96,2.459,2.64c0,3.3-3.284,4.529-3.284,6.255c0,0.074,0,0.149,0.015,0.225h3.12v1.5h-4.77v-1.29
		c0-3.09,3.27-3.6,3.27-6.63C30.968,36.511,30.639,36.256,30.113,36.256z"/>
</g>
<polyline fill="none" points="1,49.119 1,16.994 61,16.994 61,49.119 "/>
<g enable-background="new    ">
	<g>
		<path d="M7.26,16.994h1.65v9h2.715v1.5H7.26V16.994z"/>
	</g>
	<g>
		<path d="M20.685,27.494H19.02l-0.285-1.905h-2.025l-0.285,1.905H14.91l1.68-10.5h2.414L20.685,27.494z M16.92,24.164h1.59
			l-0.795-5.31L16.92,24.164z"/>
	</g>
	<g>
		<path d="M25.26,24.015l-2.085-7.021H24.9l1.26,4.785l1.26-4.785h1.574l-2.084,7.021v3.479h-1.65V24.015z"/>
	</g>
	<g>
		<path d="M32.295,19.515c0-1.68,0.885-2.64,2.504-2.64c1.621,0,2.506,0.96,2.506,2.64v5.46c0,1.68-0.885,2.64-2.506,2.64
			c-1.619,0-2.504-0.96-2.504-2.64V19.515z M33.944,25.079c0,0.75,0.33,1.035,0.854,1.035c0.525,0,0.855-0.285,0.855-1.035v-5.67
			c0-0.75-0.33-1.034-0.855-1.034c-0.524,0-0.854,0.284-0.854,1.034V25.079z"/>
	</g>
	<g>
		<path d="M42.943,16.994v8.1c0,0.75,0.33,1.021,0.855,1.021s0.855-0.271,0.855-1.021v-8.1h1.559v7.995c0,1.68-0.84,2.64-2.459,2.64
			s-2.459-0.96-2.459-2.64v-7.995H42.943z"/>
	</g>
	<g>
		<path d="M49.859,16.994h5.1v1.5h-1.725v9h-1.65v-9h-1.725V16.994z"/>
	</g>
</g>
</svg>
