<?xml version="1.0" encoding="utf-8"?>
<!-- Generator: Adobe Illustrator 16.0.0, SVG Export Plug-In . SVG Version: 6.00 Build 0)  -->
<!DOCTYPE svg PUBLIC "-//W3C//DTD SVG 1.1//EN" "http://www.w3.org/Graphics/SVG/1.1/DTD/svg11.dtd">
<svg version="1.1" id="Layer_1" xmlns="http://www.w3.org/2000/svg" xmlns:xlink="http://www.w3.org/1999/xlink" x="0px" y="0px"
	 width="60px" height="60px" viewBox="0 0 60 60" enable-background="new 0 0 60 60" xml:space="preserve">
<g>
	<g>
		<path fill="#FFFFFF" d="M13.806,53.244c0.064,1.53,1.324,2.738,2.855,2.738h26.677c1.531,0,2.791-1.208,2.855-2.738l1.904-40.217
			H11.901L13.806,53.244z M36.495,23.016c0-0.641,0.405-1.161,0.905-1.161h1.446c0.499,0,0.903,0.52,0.903,1.161v22.977
			c0,0.641-0.404,1.16-0.903,1.16H37.4c-0.5,0-0.905-0.519-0.905-1.16V23.016z M28.374,23.016c0-0.641,0.404-1.161,0.903-1.161
			h1.445c0.499,0,0.903,0.52,0.903,1.161v22.977c0,0.641-0.404,1.16-0.903,1.16h-1.445c-0.499,0-0.903-0.519-0.903-1.16V23.016
			L28.374,23.016z M20.189,23.016c0-0.641,0.419-1.161,0.937-1.161h1.499c0.518,0,0.937,0.52,0.937,1.161v22.977
			c0,0.641-0.419,1.16-0.937,1.16h-1.499c-0.518,0-0.937-0.519-0.937-1.16V23.016z"/>
		<path fill="#FFFFFF" d="M49.367,5.625H37.061V3.849c0-0.331-0.269-0.599-0.6-0.599H23.538c-0.33,0-0.598,0.268-0.598,0.599v1.776
			H10.632c-0.991,0-1.793,0.803-1.793,1.793v2.134H51.16V7.418C51.16,6.428,50.356,5.625,49.367,5.625z"/>
	</g>
</g>
</svg>
