<?xml version="1.0" encoding="utf-8"?>
<!-- Generator: Adobe Illustrator 16.0.0, SVG Export Plug-In . SVG Version: 6.00 Build 0)  -->
<!DOCTYPE svg PUBLIC "-//W3C//DTD SVG 1.1//EN" "http://www.w3.org/Graphics/SVG/1.1/DTD/svg11.dtd">
<svg version="1.1" id="Layer_1" xmlns="http://www.w3.org/2000/svg" xmlns:xlink="http://www.w3.org/1999/xlink" x="0px" y="0px"
	 width="60px" height="60px" viewBox="0 0 60 60" enable-background="new 0 0 60 60" xml:space="preserve">
<g>
	<g>
		<path fill="#FFFFFF" d="M13.806,55.244c0.064,1.53,1.324,2.738,2.855,2.738h26.677c1.531,0,2.791-1.208,2.855-2.738l1.904-40.217
			H11.901L13.806,55.244z M36.033,25.016c0-0.641,0.521-1.161,1.162-1.161h1.856c0.641,0,1.16,0.52,1.16,1.161v22.977
			c0,0.641-0.52,1.16-1.16,1.16h-1.856c-0.642,0-1.162-0.519-1.162-1.16V25.016z M27.911,25.016c0-0.641,0.52-1.161,1.161-1.161
			h1.856c0.641,0,1.16,0.52,1.16,1.161v22.977c0,0.641-0.52,1.16-1.16,1.16h-1.856c-0.641,0-1.161-0.519-1.161-1.16V25.016
			L27.911,25.016z M19.787,25.016c0-0.641,0.52-1.161,1.161-1.161h1.856c0.641,0,1.161,0.52,1.161,1.161v22.977
			c0,0.641-0.52,1.16-1.161,1.16h-1.856c-0.641,0-1.161-0.519-1.161-1.16V25.016z"/>
		<path fill="#FFFFFF" d="M49.367,4.125H37.061V1.799c0-0.331-0.269-0.599-0.6-0.599H23.538c-0.33,0-0.598,0.268-0.598,0.599v2.327
			H10.632c-0.991,0-1.793,0.803-1.793,1.793v5.633H51.16V5.918C51.16,4.928,50.356,4.125,49.367,4.125z"/>
	</g>
</g>
</svg>
